<?xml version="1.0" encoding="utf-8"?>
<!-- Generator: Adobe Illustrator 25.0.1, SVG Export Plug-In . SVG Version: 6.00 Build 0)  -->
<svg version="1.1" xmlns="http://www.w3.org/2000/svg" xmlns:xlink="http://www.w3.org/1999/xlink" x="0px" y="0px"
	 width="1287.709px" height="1004.262px" viewBox="0 0 1287.709 1004.262" style="enable-background:new 0 0 1287.709 1004.262;"
	 xml:space="preserve">
<style type="text/css">
	.st0{display:none;}
	.st1{display:inline;}
	.st2{fill:#52B380;}
	.st3{fill:none;stroke:#AAF1D9;stroke-width:2;stroke-linecap:round;stroke-miterlimit:10;}
	.st4{fill:none;stroke:#002129;stroke-width:3;stroke-linecap:round;stroke-miterlimit:10;}
	.st5{display:inline;fill:#79E0A8;}
	.st6{fill:#79E0A8;}
	.st7{display:inline;fill:#002129;}
	.st8{opacity:0.24;}
	.st9{opacity:0.11;}
	.st10{opacity:0.62;}
	.st11{fill:#254856;}
	.st12{fill:#436F70;}
	.st13{opacity:0.46;}
	.st14{fill:#274854;}
	.st15{fill:#638199;}
	.st16{fill:#1F3B44;}
	.st17{opacity:0.3;}
	.st18{opacity:0.2;}
	.st19{fill:#002129;}
	.st20{display:inline;opacity:0.1;fill:#00080D;}
	.st21{opacity:0.34;}
	.st22{fill:#83BE7C;}
	.st23{fill:#A2E79D;}
	.st24{fill:#C7E7C3;}
	.st25{opacity:0.65;}
	.st26{fill:#AAF1D9;}
	.st27{fill:#439166;}
	.st28{display:inline;opacity:0.65;}
	.st29{opacity:0.56;}
	.st30{display:inline;opacity:0.3;}
	.st31{opacity:0.0233;}
	.st32{fill:#FFFFFF;}
	.st33{opacity:0.017;}
	.st34{opacity:0.0578;}
	.st35{opacity:0.1868;}
	.st36{opacity:0.2141;}
	.st37{opacity:0.2444;}
	.st38{opacity:0.2934;}
	.st39{opacity:0.8966;}
	.st40{opacity:0.8157;}
	.st41{opacity:0.1958;}
	.st42{opacity:0.055;}
	.st43{opacity:0.1845;}
	.st44{opacity:0.2628;}
	.st45{opacity:0.1595;}
	.st46{opacity:0.2794;}
	.st47{opacity:0.1885;}
	.st48{opacity:0.4713;}
	.st49{opacity:0.3983;}
	.st50{opacity:0.1625;}
	.st51{opacity:0.2883;}
	.st52{opacity:0.434;}
	.st53{opacity:0.1645;}
	.st54{opacity:0.1242;}
	.st55{opacity:0.1068;}
	.st56{opacity:0.0652;}
	.st57{opacity:0.2094;}
	.st58{opacity:0.1565;}
	.st59{opacity:0.3417;}
	.st60{opacity:0.2449;}
	.st61{opacity:0.2293;}
	.st62{opacity:0.1949;}
	.st63{opacity:0.632;}
	.st64{opacity:0.121;}
	.st65{opacity:0.0677;}
	.st66{opacity:0.0332;}
	.st67{opacity:0.2805;}
	.st68{opacity:0.5054;}
	.st69{opacity:0.2391;}
	.st70{opacity:0.4063;}
	.st71{opacity:0.1637;}
	.st72{opacity:0.044;}
	.st73{opacity:0.0739;}
	.st74{opacity:0.052;}
	.st75{opacity:0.0429;}
	.st76{opacity:0.0314;}
	.st77{opacity:0.3285;}
	.st78{opacity:0.5065;}
	.st79{opacity:0.2088;}
	.st80{opacity:0.3257;}
	.st81{opacity:0.316;}
	.st82{opacity:0.7164;}
	.st83{opacity:0.122;}
	.st84{opacity:0.1284;}
	.st85{display:inline;opacity:0.5;}
	.st86{display:inline;fill:none;stroke:#000000;stroke-miterlimit:10;}
</style>
<g id="零件" class="st0">
</g>
<g id="底色" class="st0">
</g>
<g id="圖層_12">
	<g class="st8">
		<path d="M1007.456,111.792c-2.42,6.892-3.535,14.286-3.046,22.114c3.656,58.402,69.699,124.079,128.824,106.273
			c31.882-9.602,63.968-0.092,94.464-9.352c26.056-7.912,47.916-43.369,35.941-69.454c-9.998-21.776-27.059-18.324-45.515-24.874
			c-18.244-6.474-31.113-20.321-41.859-35.886C1137.286,44.155,1034.401,35.047,1007.456,111.792z"/>
	</g>
	<g class="st8">
		<path d="M274.021,920.437c2.552-6.844,3.809-14.215,3.471-22.051c-2.532-58.461-67.298-125.397-126.755-108.733
			c-32.061,8.986-63.958-1.139-94.627,7.532c-26.204,7.409-48.742,42.439-37.271,68.75c9.577,21.965,26.701,18.841,45.028,25.745
			c18.116,6.824,30.716,20.916,41.16,36.684C142.914,985.563,245.605,996.649,274.021,920.437z"/>
	</g>
	<g class="st9">
		<path d="M1269.012,901.457c1.411-7.505,1.001-15.046-1.602-22.454c-19.433-55.267-121.738-96.069-194.07-58.451
			c-39.004,20.285-83.076,22.142-120.365,41.618c-31.86,16.641-51.343,58.497-29.228,79.616
			c18.463,17.631,39.758,8.407,65.381,8.384c25.328-0.023,45.527,8.943,63.399,20.303
			C1117.359,1011.682,1253.304,985.028,1269.012,901.457z"/>
	</g>
	<g class="st9">
		<path d="M808.653,354.881c-9.412-1.788-19.568-2.958-30.389-3.353c-80.731-2.938-174.031,25.074-151.861,56.43
			c11.955,16.908-2.468,32.353,9.072,48.532c9.86,13.824,57.897,27.783,94.375,23.866c30.452-3.271,26.381-12.18,36.167-20.976
			c9.674-8.694,29.302-14.067,51.213-18.225C896.712,426.072,913.452,374.795,808.653,354.881z"/>
	</g>
	<g class="st8">
		<path d="M365.012,591.457c1.411-7.505,1.001-15.046-1.602-22.454c-19.433-55.267-121.738-96.069-194.07-58.451
			c-39.004,20.285-83.076,22.142-120.365,41.618c-31.86,16.641-51.343,58.497-29.228,79.616
			c18.463,17.631,39.758,8.407,65.381,8.384c25.328-0.023,45.527,8.943,63.399,20.303
			C213.359,701.682,349.304,675.028,365.012,591.457z"/>
	</g>
	<g class="st9">
		<path d="M710.188,251.942c10.77-18.941-5.836-45.435-25.811-57.699c-26.764-16.431-61.615-13.308-91.663-14.651
			c-25.781-1.152-52.598-2.126-76.288,8.109c-12.388,5.352-24.418,15.259-25.799,28.683c-1.104,10.73,5.115,21.212,13.641,27.818
			c8.526,6.607,19.086,9.964,29.535,12.643c37.8,9.69,77.043,12.089,116.022,13.922c14.665,0.69,29.939,1.198,43.372-4.726
			C701.583,262.343,707.049,257.464,710.188,251.942z"/>
	</g>
	<g class="st9">
		<path d="M266.134,114.729c-14.423-24.088-59.597-41.622-90.209-43.468c-41.014-2.473-64.745,18.375-90.091,32.389
			c-21.746,12.024-44.094,24.751-50.408,46.885c-3.302,11.575-0.808,27.438,14.35,41.32c12.115,11.096,29.71,18.212,44.437,20.347
			c14.727,2.135,27.126,0.042,38.616-2.66c41.568-9.775,75.449-27.444,108.438-45.534c12.412-6.806,25.084-14.1,28.518-26.769
			C271.93,129.329,270.339,121.751,266.134,114.729z"/>
	</g>
	<g class="st9">
		<path d="M769.188,770.942c10.77-18.941-5.836-45.435-25.811-57.699c-26.764-16.431-61.615-13.308-91.663-14.651
			c-25.781-1.152-52.598-2.126-76.288,8.109c-12.388,5.352-24.418,15.259-25.799,28.683c-1.104,10.73,5.115,21.212,13.641,27.818
			c8.526,6.607,19.086,9.964,29.535,12.643c37.8,9.69,77.043,12.089,116.022,13.922c14.665,0.69,29.939,1.198,43.372-4.726
			C760.583,781.343,766.049,776.464,769.188,770.942z"/>
	</g>
</g>
<g id="底葉">
	<g>
		<g class="st10">
			<path class="st11" d="M538.918,778.167c9.96,28.664,59.997,62.682,105.165,88.679c45.564,26.132,86.259,44.243,86.694,44.23
				c-0.213,0.012-9.586-14.347-25.901-33.208c-15.994-18.797-38.928-42.097-58.847-58.472
				c-31.073-26.039-61.843-42.77-81.845-49.906C543.887,762.39,534.358,764.886,538.918,778.167z"/>
			<path d="M686.87,876.917c-0.266,0.32-0.854,0.307-1.333-0.035c-50.44-37.023-112.193-81.567-113.31-81.811
				c-0.574-0.405-0.842-0.95-0.591-1.219c0.247-0.268,0.916-0.158,1.492,0.248c1.113,0.243,62.863,44.621,113.335,81.548
				c0.49,0.348,0.68,0.907,0.422,1.248C686.882,876.903,686.876,876.91,686.87,876.917z"/>
		</g>
		<g class="st10">
			<path class="st11" d="M1018.948,185.973c25.838,6.827,86.016-30.963,123.773-70.574c40.292-39.565,58.163-80.952,57.924-80.263
				c0.621-0.184-61.16,39.557-102.649,66.102C1034.619,143.167,994.493,180.335,1018.948,185.973z"/>
			<path d="M1162.352,75.344c0.292,0.294,0.194,0.861-0.222,1.282c-44.51,45.73-111.812,85.886-112.381,86.091
				c-0.607,0.364-1.177,0.37-1.273,0.006c-0.097-0.36,0.316-0.948,0.921-1.313c0.566-0.205,67.436-40.276,111.604-85.829
				c0.423-0.429,1.019-0.544,1.333-0.255C1162.339,75.332,1162.346,75.338,1162.352,75.344z"/>
		</g>
		<g class="st10">
			<path class="st11" d="M1023.983,110.048c12.075,19.29,56.058,7.43,88.576-9.701c33.814-17.045,56.164-39.36,54.897-38.991
				c-0.015,0.003-55.672,1.024-86.86,4.525C1031.537,71.285,1010.694,91.841,1023.983,110.048z"/>
			<path d="M1132.33,74.859c0.199,0.385,0.071,0.811-0.291,0.96c-39.295,16.197-86.194,24.676-86.424,24.729
				c-0.423,0.076-0.791-0.195-0.823-0.614c-0.034-0.416,0.279-0.815,0.7-0.891c0.228-0.05,46.846-8.526,85.764-24.64
				c0.366-0.152,0.844,0.041,1.06,0.432C1132.322,74.843,1132.327,74.851,1132.33,74.859z"/>
		</g>
		<g class="st10">
			<path class="st11" d="M0.001,651.455c-0.253,22.231,44.118,86.337,61.76,138.626c21.979,53.21,17.231,94.604,18.898,92.67
				c-0.667,0.029,14.574-18.695,21.818-46.945c8.198-27.789,8.399-65.105-0.307-91.614c-12.089-42.728-40.933-71.216-62.949-86.533
				C16.569,642.39,0.745,640.291,0.001,651.455z"/>
			<path d="M89.423,824.963c-0.536,0.186-0.993-0.155-1.034-0.775c-1.517-33.572-13.221-70.775-26.745-97.812
				c-13.161-27.336-28.144-44.505-27.818-44.901c-0.476-0.636-0.488-1.221-0.009-1.305c0.473-0.086,1.247,0.359,1.726,0.995
				c-0.323,0.395,14.642,17.497,27.834,44.735c13.554,26.941,25.334,64.019,26.997,97.519c0.047,0.634-0.367,1.32-0.916,1.532
				C89.446,824.955,89.434,824.959,89.423,824.963z"/>
		</g>
		<g class="st10">
			<path class="st12" d="M365.285,636.868c-50.336-7.752-80.387,56.405-123.743,122.537
				c-39.238,66.082-91.779,134.139-92.011,133.033c1.156,0.34,116.891-69.699,168.969-115.811
				C404.92,703.815,411.478,642.89,365.285,636.868z"/>
			<path d="M221.503,824.437c-0.459-0.432-0.31-1.338,0.343-2.049c71.478-77.146,125.707-146.199,126.36-146.546
				c0.522-0.626,1.396-0.697,1.959-0.146c0.561,0.544,0.589,1.493,0.062,2.121c-0.652,0.347-55.06,69.247-126.584,146.099
				c-0.669,0.724-1.616,0.97-2.11,0.549C221.522,824.455,221.512,824.446,221.503,824.437z"/>
		</g>
		<g class="st13">
			<path class="st14" d="M1119.255,834.914c-5.638-9.262-1.967-18.741-13.396-27.942c-11.49-9.2-24.056-9.706-29.241-14.564
				c-5.111-4.862-6.633-21.428-18.037-32.028c-11.353-10.598-22.356-2.038-28.208-6.839c-5.869-4.797-9.901-14.758-20.134-24.24
				c-10.272-9.471-27.368-9.133-36.43-12.809c-9.104-3.666-25.336-9.084-27.253-3.804c-1.813,5.255,15.376,20.139,21.834,25.641
				c6.767,5.445,11.574,23.01,16.707,30.583c5.26,7.553,19.164,4.081,26.745,9.869c7.656,5.786,9.791,21.115,14.69,28.458
				c4.978,7.338,19.359,6.322,25.373,12.397c5.995,6.074,5.457,15.97,8.155,24.516c2.662,8.541,24.645,8.124,30.737,14.607
				c6.371,6.528-4.751,31.139-1.605,41.398c3.429,10.311,45.884,1.531,45.884,1.531c-0.005-0.001,10.663,0.283,15.473-3.353
				c5.467-3.497,10.992-38.054,2.662-47.347C1145.545,841.812,1124.796,844.168,1119.255,834.914z"/>
			<path class="st15" d="M982.767,738.003c-0.37-0.29-0.502-0.763-0.294-1.067c0.211-0.31,0.695-0.328,1.081-0.04
				c2.446,0.322,74.137,58.679,87.095,74.041c7.728,7.554,27.977,29.159,43.737,48.561c16.181,19.464,27.871,36.723,28.213,37.032
				c0.207,0.294,0.051,0.772-0.346,1.066c-0.397,0.293-0.881,0.296-1.089,0.006c-0.001-0.001-0.002-0.003-0.003-0.004
				c-0.341-0.309-11.961-17.55-28.064-37.002c-15.682-19.388-35.846-40.989-43.542-48.541
				c-12.885-15.341-84.324-73.71-86.767-74.038C982.78,738.013,982.774,738.008,982.767,738.003z"/>
			<path class="st15" d="M1011.971,757.751c-0.005-0.005-0.011-0.01-0.016-0.014c-0.351-0.307-0.431-0.797-0.179-1.094
				c0.028-0.036,3.101-3.717,2.001-8.282c-0.633-2.636-2.538-5.095-5.64-7.308c-0.392-0.279-0.54-0.762-0.339-1.082
				c0.201-0.32,0.68-0.355,1.07-0.078c3.532,2.51,5.708,5.347,6.446,8.436c1.256,5.25-2.125,9.259-2.266,9.426
				C1012.798,758.047,1012.32,758.044,1011.971,757.751z"/>
			<path class="st15" d="M1052.32,792.666c-0.005-0.005-0.01-0.009-0.015-0.014c-0.313-0.31-0.331-0.805-0.044-1.106
				c0.034-0.036,3.559-3.756,3.027-8.385c-0.305-2.673-1.903-5.168-4.73-7.419c-0.358-0.286-0.445-0.774-0.204-1.1
				c0.24-0.325,0.724-0.361,1.079-0.08c3.217,2.552,5.041,5.434,5.396,8.566c0.604,5.323-3.273,9.372-3.433,9.542
				C1053.111,792.965,1052.633,792.962,1052.32,792.666z"/>
			<path class="st15" d="M1108.376,851.242c-0.004-0.004-0.007-0.01-0.012-0.014c-0.25-0.308-0.167-0.8,0.182-1.098
				c0.041-0.036,4.327-3.728,4.744-8.345c0.242-2.666-0.845-5.162-3.209-7.415c-0.301-0.289-0.287-0.776,0.021-1.102
				c0.307-0.326,0.798-0.362,1.096-0.08c2.694,2.559,3.926,5.44,3.639,8.565c-0.486,5.31-5.19,9.325-5.386,9.493
				C1109.106,851.539,1108.628,851.536,1108.376,851.242z"/>
			<path class="st15" d="M1060.46,825.249c-0.049-0.052-0.079-0.086-0.091-0.099c-0.277-0.311-0.239-0.805,0.083-1.106
				c0.323-0.301,0.82-0.28,1.09,0.017c0.046,0.037,3.469,3.81,8.044,3.676c2.643-0.077,5.214-1.438,7.588-4.049
				c0.297-0.327,0.786-0.363,1.093-0.08c0.304,0.294,0.314,0.777,0.016,1.104c-2.704,2.96-5.678,4.502-8.778,4.589
				C1064.628,829.438,1061.09,825.908,1060.46,825.249z"/>
			<path class="st15" d="M1096.189,884.229c-0.073-0.095-0.115-0.156-0.132-0.179c-0.213-0.303-0.072-0.785,0.313-1.078
				c0.386-0.293,0.864-0.291,1.087,0.018c0.07,0.082,5.197,7.265,14.259,7.01c5.264-0.146,10.938-2.731,16.661-7.729
				c0.365-0.319,0.861-0.354,1.109-0.078c0.253,0.279,0.153,0.757-0.212,1.076c-6.133,5.335-12.263,8.093-17.985,8.248
				C1102.249,891.761,1097.114,885.423,1096.189,884.229z"/>
			<path class="st15" d="M1017,783.591c-0.057-0.052-0.092-0.086-0.106-0.099c-0.322-0.311-0.357-0.804-0.077-1.104
				c0.279-0.301,0.762-0.296,1.093,0.017c0.049,0.034,4.022,3.805,8.578,3.672c2.632-0.076,5.005-1.438,6.999-4.044
				c0.249-0.327,0.733-0.362,1.081-0.08c0.347,0.295,0.427,0.776,0.176,1.102c-2.272,2.955-5.025,4.5-8.111,4.586
				C1021.778,787.776,1017.725,784.247,1017,783.591z"/>
		</g>
		<g class="st13">
			<path class="st16" d="M1203.415,716.896c3.063-12.768,14.49-14.942,14.601-33.197c0.347-18.289-7.199-32.546-5.207-41.097
				c2.057-8.552,19.618-18.888,26.712-36.054c7.251-17.155-7.998-25.722-4.315-34.171c3.802-8.434,15.12-16.682,24.915-30.685
				c9.729-14.021,5.689-32.025,9.615-42.444c3.622-10.522,10.343-28.247,2.687-28.961c-7.972-0.836-27.889,20.822-34.143,29.641
				c-6.593,8.703-29.265,20.544-37.691,29.682c-8.518,9.115,0.165,22.604-4.178,33.766c-4.397,11.151-21.725,21.928-27.702,32.011
				c-6.057,10.078,2.707,25.511-0.059,36.211c-2.8,10.696-13.048,17.019-19.327,26.584c-6.493,9.582,10.269,33.751,10.317,45.629
				c-0.172,11.899-27.76,21.45-30.634,35.457c-3.591,14.222,45.99,50.049,46.532,49.863c-0.062,0.023,11.915,11.156,19.034,12.647
				c6.888,1.583,30.166-21.676,28.912-36.626C1221.744,750.36,1200.394,729.666,1203.415,716.896z"/>
			<path class="st15" d="M1241.335,514.987c0.319-0.49,0.941-0.788,1.401-0.667c0.468,0.122,0.592,0.63,0.278,1.135
				c-0.096,0.423-16.73,25.987-29.076,55.537c-13.132,29.42-21.976,62.827-24.637,75.931c-3.51,13.065-10.233,50.511-9.567,83.291
				c-0.377,33.021,6.635,61.376,6.502,61.817c0.103,0.482-0.282,0.763-0.859,0.628c-0.575-0.134-1.125-0.629-1.231-1.109
				c-0.001-0.002-0.001-0.004-0.001-0.007c0.134-0.441-6.83-28.812-6.401-61.841c-0.614-32.789,6.165-70.235,9.693-83.297
				c2.678-13.093,11.567-46.485,24.736-75.889c12.384-29.535,29.049-55.082,29.147-55.505
				C1241.324,515.004,1241.329,514.996,1241.335,514.987z"/>
			<path class="st15" d="M1223.032,553.904c0.004-0.008,0.009-0.015,0.013-0.024c0.277-0.511,0.883-0.802,1.351-0.65
				c0.059,0.019,5.83,1.836,11.431-1.106c3.239-1.698,5.851-4.677,7.859-8.825c0.254-0.524,0.853-0.855,1.34-0.748
				c0.488,0.107,0.678,0.614,0.427,1.134c-2.274,4.711-5.283,8.118-9.07,10.105c-6.424,3.38-12.723,1.379-12.99,1.292
				C1222.931,554.931,1222.773,554.407,1223.032,553.904z"/>
			<path class="st15" d="M1198.332,615.596c0.003-0.008,0.006-0.016,0.008-0.024c0.182-0.523,0.734-0.819,1.231-0.664
				c0.062,0.019,6.17,1.877,11.226-1.13c2.924-1.736,4.984-4.779,6.22-9.039c0.158-0.539,0.694-0.876,1.201-0.768
				c0.507,0.109,0.793,0.631,0.639,1.164c-1.397,4.831-3.775,8.315-7.195,10.345c-5.799,3.451-12.468,1.408-12.751,1.32
				C1198.422,616.646,1198.166,616.111,1198.332,615.596z"/>
			<path class="st15" d="M1180.589,717.124c0-0.008,0.001-0.016,0.001-0.024c0.027-0.512,0.491-0.802,1.034-0.65
				c0.068,0.018,6.728,1.84,10.891-1.108c2.409-1.703,3.565-4.69,3.534-8.892c-0.002-0.536,0.433-0.866,0.973-0.758
				c0.54,0.108,0.98,0.622,0.985,1.148c0.04,4.769-1.304,8.181-4.121,10.171c-4.775,3.379-12.05,1.379-12.359,1.292
				C1180.99,718.152,1180.576,717.628,1180.589,717.124z"/>
			<path class="st15" d="M1168.11,644.947c0.021-0.09,0.037-0.148,0.042-0.17c0.14-0.522,0.665-0.818,1.175-0.662
				c0.511,0.156,0.804,0.726,0.675,1.23c-0.02,0.069-1.639,6.492,1.599,11.514c1.859,2.899,4.959,4.811,9.162,5.686
				c0.527,0.109,0.901,0.631,0.837,1.165c-0.076,0.539-0.54,0.878-1.068,0.768c-4.772-0.992-8.335-3.217-10.521-6.618
				C1166.556,652.506,1167.829,646.093,1168.11,644.947z"/>
			<path class="st15" d="M1145.568,731.702c-0.003-0.164-0.003-0.268-0.003-0.307c0.007-0.507,0.458-0.794,1.007-0.643
				c0.55,0.152,0.988,0.673,0.987,1.194c-0.044,0.119,0.017,12.318,9.27,21.757c5.33,5.483,12.58,9.061,21.354,10.688
				c0.56,0.104,1.092,0.597,1.191,1.102c0.102,0.513-0.274,0.829-0.834,0.726c-9.382-1.735-17.204-5.603-23.012-11.561
				C1146.291,745.249,1145.572,733.769,1145.568,731.702z"/>
			<path class="st15" d="M1192.474,571.491c0.041-0.089,0.069-0.146,0.078-0.167c0.252-0.516,0.84-0.807,1.317-0.653
				c0.477,0.154,0.661,0.688,0.411,1.213c-0.035,0.062-3.029,6.407-0.868,11.393c1.238,2.876,3.927,4.779,7.943,5.649
				c0.503,0.109,0.766,0.628,0.587,1.159c-0.193,0.537-0.728,0.875-1.232,0.765c-4.559-0.988-7.644-3.204-9.102-6.58
				C1189.301,578.951,1191.947,572.62,1192.474,571.491z"/>
		</g>
		<g class="st17">
			<path class="st12" d="M871.036,840.248c5.177,12.206,12.073,22.726,19.168,29.451c2.872,2.746,5.853,1.989,5.744-1.287
				c-0.264-8.099-3.219-18.33-8.694-29.578c-5.472-11.251-12.4-21.666-18.99-30.029c-2.678-3.372-5.348-3.63-5.248-0.321
				C863.266,816.626,865.856,828.04,871.036,840.248z"/>
			<path class="st12" d="M846.353,958.135c-4.436-13.7-9.82-27.273-14.541-38.789c-1.929-4.65-3.757-6.22-3.688-2.863
				c0.184,8.261,1.912,20.966,5.699,35.624c3.785,14.656,9.096,28.332,14.936,38.211c2.355,4.024,4.877,4.579,4.785,1.255
				C853.33,983.355,850.794,971.833,846.353,958.135z"/>
			<path class="st12" d="M957.732,729.57c8.613-3.756,18.671-12.07,27.551-24.735c8.914-12.617,14.981-27.029,18.536-38.752
				c1.422-4.786,0.566-5.963-1.801-2.457c-5.844,8.631-14.147,20.034-23.585,31.715c-8.735,10.882-16.719,20.33-22.162,28.353
				c0.355-0.966,0.558-1.516,0.593-1.611c0.232-0.629-0.041-1.119-0.615-1.1c-0.571,0.021-1.229,0.535-1.464,1.158
				c-0.008,0.023-0.031,0.084-0.061,0.164c-0.63-7.377-3.371-15.167-8.368-22.564c-5.449-8.07-12.62-14.386-19.877-18.655
				c-2.94-1.712-5.967-0.267-5.855,2.979c0.271,7.989,3.259,17.727,8.88,26.754c5.617,9.025,12.808,15.447,19.774,18.077
				c1.057,0.403,2.118,0.316,3.026-0.124c-3.143,8.389-9.126,24.224-16.963,44.008c-0.858-7.173-3.7-15.038-8.57-22.939
				c-5.628-9.13-12.94-16.814-20.195-22.447c-2.943-2.265-5.942-1.389-5.831,1.879c0.273,8.041,3.218,18.336,8.864,28.424
				c5.643,10.085,12.955,17.873,20.186,21.868c0.9,0.501,1.804,0.67,2.624,0.572c-5.081,12.749-10.799,26.829-16.822,41.534
				c-0.728-7.542-3.65-16.283-8.729-25.467c-5.636-10.191-12.866-19.24-19.899-26.238c-2.856-2.819-5.735-2.509-5.629,0.779
				c0.265,8.092,3.078,18.947,8.577,30.095c5.496,11.146,12.711,20.299,19.984,25.659c1.148,0.851,2.305,1.169,3.288,1.05
				c-10.951,26.747-22.687,55.082-33.086,82.564c-0.477-7.985-3.306-18.208-8.266-29.739c-5.21-12.119-11.726-23.652-17.789-33.132
				c-2.468-3.825-4.895-4.548-4.804-1.221c0.231,8.184,2.573,20.056,7.363,33.132c4.789,13.074,11.259,24.712,18.044,32.553
				c1.464,1.701,2.957,2.411,4.023,2.205c-4.637,12.377-8.991,24.603-12.925,36.595c-0.547-7.985-3.213-18.401-7.713-30.398
				c-4.853-12.944-10.842-25.54-16.266-36.082c-2.211-4.255-4.352-5.42-4.272-2.077c0.209,8.225,2.256,20.53,6.57,34.431
				c4.313,13.899,10.241,26.6,16.594,35.503c1.344,1.894,2.719,2.837,3.72,2.833c-4.851,15.094-9.007,29.807-12.31,44.097
				c-0.11,0.476,0.231,1.295,0.766,1.821c0.018,0.017,0.035,0.034,0.052,0.05c0.516,0.479,1.014,0.494,1.122,0.03
				c0.306-1.312,0.621-2.629,0.941-3.948c0.615,0.896,1.483,1.748,2.567,2.383c7.833,4.641,17.953,6.469,28.374,4.028
				c10.416-2.4,19.012-8.377,24.204-14.691c2.112-2.59,0.388-5.158-3.33-5.17c-9.167-0.035-20.061,0.808-30.17,2.167
				c-8.93,1.238-15.76,2.868-20.23,5.6c3.029-11.855,6.605-23.999,10.634-36.4c0.519,1.294,1.767,2.597,3.556,3.324
				c8.405,3.46,19.072,3.888,29.841,0.061c10.768-3.784,19.481-10.882,24.748-17.887c2.14-2.872,0.461-5.213-3.266-4.731
				c-9.188,1.183-20.316,3.485-30.904,6.245c-10.172,2.69-17.963,5.55-22.791,9.376c3.965-12.001,8.336-24.239,12.979-36.625
				c0.342,1.412,1.753,2.798,3.912,3.329c8.843,2.215,19.889,1.156,30.825-4.151c10.941-5.264,19.611-13.564,24.855-21.322
				c2.126-3.177,0.524-5.292-3.142-4.289c-9.037,2.466-20.199,6.315-31.091,10.568c-10.739,4.233-19.14,8.326-24.281,12.999
				c4.757-12.606,9.778-25.359,14.874-38.077c0.068,1.564,1.595,2.999,4.091,3.23c9.125,0.878,20.351-1.788,31.24-8.703
				c10.898-6.871,19.334-16.484,24.427-25.075c2.06-3.514,0.571-5.396-2.95-3.835c-8.681,3.843-19.639,9.356-30.625,15.231
				c-10.987,5.919-19.818,11.345-25.199,16.874c-0.049,0.05-0.086,0.102-0.131,0.153c6.081-15.146,12.249-30.232,18.158-44.778
				c0.192,1.414,1.68,2.457,4.051,2.297c9.218-0.59,20.4-5.032,30.992-13.764c10.61-8.686,18.589-19.827,23.404-29.42
				c1.943-3.921,0.647-5.574-2.6-3.386c-8.009,5.387-18.443,12.797-29.291,20.517c-10.776,7.719-19.783,14.556-25.408,20.928
				c6.407-15.772,12.473-30.858,17.804-44.407c0.622,0.71,1.84,1.015,3.51,0.619c9.057-2.111,19.86-8.408,29.795-19.019
				c9.961-10.565,17.162-23.265,21.466-33.87c1.731-4.332,0.631-5.751-2.249-2.929c-7.103,6.946-16.681,16.271-27.019,25.885
				c-9.289,8.694-17.461,16.358-23.091,23.166c7.658-19.562,13.531-35.308,16.706-43.908
				C954.684,730.147,955.934,730.363,957.732,729.57z"/>
		</g>
		<g class="st13">
			<path class="st14" d="M120.845,134.3c10.288,3.599,11.156,13.039,25.461,13.62c14.45,0.606,26.362-6.309,32.964-5.379
				c6.851,0.974,13.137,14.025,25.785,16.842c13.05,2.907,22.512-11.09,28.898-10.207c6.649,0.939,12.098,7.779,22.612,11.018
				c10.636,3.268,27.695-6.785,36.59-8.404c9.009-1.59,24.955-5.424,26.052-12.079c1.071-6.659-17.777-11.454-25.129-12.843
				c-7.148-1.383-18.202-15-26.536-18.568c-8.013-3.571-17.075,7.823-26.19,7.282c-8.838-0.547-19.298-12.181-28.138-15.082
				c-8.608-2.915-18.654,6.474-27.373,5.292c-8.583-1.191-15.302-9.059-24.31-13.656c-8.836-4.615-24.097,8.722-34.01,7.761
				c-9.129-1.062-24.486-24.072-38.661-28.227C76.26,67.19,57.876,97.359,56.81,97.537c0.016-0.003-7.982,6.153-8.446,11.359
				c0.494,5.231,21.266,31.763,32.625,33.754C93.341,144.749,110.821,130.736,120.845,134.3z"/>
			<path class="st15" d="M281.562,135.744c0.403,0.061,0.637,0.441,0.522,0.86c-0.117,0.426-0.551,0.73-0.966,0.679
				c-0.728-0.09-83.914-10.239-105.017-13.391c-20.646-3.138-118.739-18.443-119.987-18.587c-0.427-0.066-0.748-0.465-0.721-0.892
				c0.027-0.424,0.39-0.716,0.815-0.654c0.002,0,0.004,0.001,0.006,0.001c1.25,0.142,99.516,15.441,120.193,18.583
				c21.119,3.148,104.406,13.307,105.135,13.397C281.549,135.742,281.555,135.743,281.562,135.744z"/>
			<path class="st15" d="M249.898,134.48c0.006,0.001,0.013,0.002,0.019,0.003c0.41,0.073,0.634,0.475,0.5,0.898
				c0.001,0.054-1.648,5.242,0.332,8.845c1.161,2.082,3.399,3.274,6.723,3.554c0.419,0.035,0.64,0.405,0.498,0.826
				c-0.142,0.421-0.597,0.734-1.013,0.699c-3.77-0.318-6.305-1.707-7.644-4.147c-2.24-4.142-0.434-9.802-0.379-10.042
				C249.068,134.7,249.494,134.42,249.898,134.48z"/>
			<path class="st15" d="M200.908,127.91c0.007,0.001,0.013,0.002,0.019,0.003c0.413,0.073,0.658,0.477,0.545,0.902
				c0.004,0.053-1.384,5.267,0.779,8.898c1.266,2.098,3.564,3.3,6.904,3.582c0.422,0.037,0.661,0.409,0.54,0.833
				c-0.121,0.425-0.559,0.74-0.977,0.705c-3.784-0.32-6.393-1.722-7.855-4.181c-2.451-4.175-0.93-9.862-0.887-10.104
				C200.089,128.131,200.501,127.849,200.908,127.91z"/>
			<path class="st15" d="M119.733,115.775c0.007,0.001,0.013,0.002,0.02,0.003c0.42,0.074,0.702,0.479,0.628,0.905
				c0.009,0.052-0.899,5.288,1.602,8.951c1.461,2.116,3.872,3.33,7.237,3.615c0.43,0.038,0.699,0.413,0.618,0.842
				c-0.081,0.429-0.49,0.748-0.911,0.713c-3.816-0.324-6.553-1.742-8.244-4.223c-2.839-4.215-1.842-9.925-1.821-10.166
				C118.934,115.996,119.32,115.713,119.733,115.775z"/>
			<path class="st15" d="M175.495,106.544c0.073,0.011,0.12,0.019,0.137,0.022c0.425,0.075,0.734,0.478,0.69,0.904
				c-0.045,0.426-0.443,0.707-0.851,0.638c-0.061-0.005-5.245-0.865-8.719,1.976c-2.016,1.64-3.123,4.219-3.448,7.663
				c-0.041,0.432-0.42,0.752-0.844,0.716c-0.429-0.046-0.733-0.414-0.692-0.846c0.364-3.906,1.64-6.86,3.987-8.78
				C169.431,105.817,174.561,106.408,175.495,106.544z"/>
			<path class="st15" d="M100.894,85.788c0.14,0.02,0.229,0.034,0.263,0.039c0.437,0.073,0.811,0.47,0.833,0.888
				c0.022,0.418-0.305,0.698-0.751,0.627c-0.124-0.022-10.513-1.684-16.53,3.833c-3.531,3.204-5.039,8.233-5.081,14.984
				c-0.003,0.431-0.354,0.75-0.781,0.715c-0.433-0.035-0.769-0.413-0.767-0.844c0.037-7.211,1.645-12.609,5.453-16.084
				C89.486,84.458,99.11,85.545,100.894,85.788z"/>
			<path class="st15" d="M234.739,114.504c0.072,0.011,0.118,0.019,0.136,0.022c0.421,0.075,0.706,0.479,0.635,0.905
				c-0.07,0.427-0.463,0.71-0.89,0.639c-0.057-0.005-5.193-0.866-8.838,1.978c-2.115,1.641-3.377,4.221-3.91,7.658
				c-0.067,0.431-0.465,0.75-0.887,0.714c-0.427-0.047-0.708-0.413-0.642-0.844c0.6-3.898,2.053-6.855,4.516-8.776
				C228.719,113.776,233.813,114.368,234.739,114.504z"/>
		</g>
		<g class="st13">
			<path class="st14" d="M349.782,69.206c4.018,7.703,0.122,14.827,8.874,22.856c8.807,8.029,19.364,9.374,23.277,13.535
				c3.875,4.163,3.401,17.075,11.785,26.081c8.371,9.003,18.837,3.259,23.244,7.388c4.434,4.126,6.607,12.062,14.033,20.074
				c7.455,8.005,22.236,9.015,29.519,12.49c7.305,3.471,20.53,8.788,22.991,4.913c2.381-3.859-10.431-16.473-15.309-21.165
				c-5.088-4.658-7.205-18.466-10.875-24.685c-3.745-6.209-15.922-4.593-21.801-9.63c-5.921-5.036-6.386-17.061-9.989-23.157
				c-3.649-6.094-15.836-6.401-20.442-11.602c-4.588-5.201-3.472-12.918-5.247-19.873c-1.752-6.951-20.092-8.292-24.792-13.894
				c-4.862-5.625,5.417-24.493,3.044-33.114c-2.525-8.643-37.607-4.631-37.629-4.636c0.002,0.001-8.732-1.013-12.84,1.573
				c-4.516,2.506-11.068,29.722-4.955,37.61C328.363,61.79,345.84,61.509,349.782,69.206z"/>
			<path class="st15" d="M455.803,154.55c0.28,0.249,0.333,0.62,0.115,0.837c-0.222,0.221-0.64,0.198-0.934-0.051
				c-1.862-0.334-56.51-50.582-66.334-63.674c-5.86-6.465-21.2-24.888-33.155-41.495c-12.271-16.65-21.157-31.485-21.417-31.758
				c-0.157-0.253-0.009-0.627,0.33-0.836c0.338-0.208,0.737-0.174,0.895,0.076c0.001,0.001,0.001,0.002,0.002,0.004
				c0.258,0.273,9.101,15.097,21.324,31.74c11.907,16.6,27.194,35.019,33.033,41.482c9.777,13.076,64.264,63.326,66.125,63.663
				C455.793,154.541,455.798,154.545,455.803,154.55z"/>
			<path class="st15" d="M433.191,137.229c0.004,0.004,0.008,0.008,0.012,0.012c0.264,0.262,0.276,0.644,0.026,0.853
				c-0.029,0.026-3.079,2.617-2.711,6.198c0.213,2.067,1.528,4.094,3.899,6.02c0.299,0.243,0.364,0.623,0.149,0.853
				c-0.215,0.23-0.63,0.221-0.928-0.021c-2.698-2.186-4.194-4.522-4.439-6.945c-0.416-4.117,2.933-6.939,3.072-7.056
				C432.518,136.939,432.926,136.978,433.191,137.229z"/>
			<path class="st15" d="M402.511,107.251c0.004,0.004,0.007,0.008,0.011,0.012c0.235,0.264,0.206,0.649-0.067,0.86
				c-0.031,0.026-3.364,2.638-3.386,6.254c-0.013,2.088,1.079,4.135,3.241,6.086c0.273,0.247,0.295,0.631,0.055,0.863
				c-0.24,0.233-0.654,0.223-0.926-0.021c-2.458-2.212-3.699-4.574-3.68-7.021c0.033-4.158,3.689-7,3.841-7.119
				C401.871,106.959,402.273,106.998,402.511,107.251z"/>
			<path class="st15" d="M359.99,57.166c0.003,0.004,0.006,0.008,0.009,0.012c0.188,0.262,0.089,0.645-0.221,0.854
				c-0.036,0.026-3.839,2.62-4.512,6.224c-0.389,2.081,0.334,4.126,2.144,6.075c0.23,0.25,0.182,0.631-0.1,0.863
				c-0.282,0.233-0.695,0.223-0.922-0.021c-2.06-2.213-2.874-4.571-2.414-7.01c0.782-4.144,4.95-6.965,5.123-7.083
				C359.402,56.875,359.799,56.914,359.99,57.166z"/>
			<path class="st15" d="M398.307,81.262c0.037,0.044,0.061,0.074,0.07,0.084c0.21,0.265,0.145,0.649-0.148,0.859
				c-0.293,0.211-0.709,0.157-0.914-0.096c-0.035-0.032-2.642-3.248-6.487-3.493c-2.222-0.142-4.47,0.73-6.657,2.592
				c-0.274,0.233-0.687,0.224-0.923-0.021c-0.233-0.253-0.205-0.632,0.069-0.865c2.486-2.111,5.086-3.095,7.689-2.926
				C395.101,77.663,397.826,80.699,398.307,81.262z"/>
			<path class="st15" d="M371.784,31.781c0.055,0.081,0.089,0.134,0.102,0.154c0.163,0.26,0.028,0.637-0.302,0.843
				c-0.33,0.206-0.726,0.169-0.896-0.096c-0.052-0.068-4.002-6.237-11.475-6.708c-4.343-0.275-9.116,1.392-14.078,4.975
				c-0.316,0.229-0.728,0.219-0.919-0.02c-0.196-0.243-0.09-0.619,0.227-0.848c5.314-3.825,10.462-5.6,15.181-5.298
				C367.075,25.259,371.069,30.754,371.784,31.781z"/>
			<path class="st15" d="M431.597,116.961c0.043,0.044,0.07,0.073,0.08,0.084c0.245,0.264,0.228,0.648-0.038,0.858
				c-0.266,0.211-0.674,0.17-0.926-0.096c-0.037-0.03-3.058-3.244-6.934-3.49c-2.239-0.142-4.377,0.731-6.325,2.59
				c-0.244,0.233-0.658,0.224-0.926-0.021c-0.265-0.254-0.287-0.631-0.042-0.864c2.216-2.109,4.689-3.094,7.313-2.925
				C427.929,113.364,431.044,116.399,431.597,116.961z"/>
		</g>
		<g class="st17">
			<path class="st12" d="M122.318,388.208c-1.216-11.674,0.128-21.648,3.321-28.54c1.293-2.788,4.769-2.083,6.741,1.34
				c4.86,8.467,8.487,19.241,9.727,30.774c1.241,11.521-0.138,21.705-3.37,28.846c-1.311,2.902-4.811,2.348-6.779-1.102
				C127.1,411.045,123.537,399.87,122.318,388.208z"/>
			<path class="st12" d="M25.746,214.593c0.871,12.412-0.11,21.608-2.33,26.421c-0.905,1.958-3.27-1.123-4.562-5.998
				c-3.208-11.998-5.429-25.78-6.191-38.334c-0.752-12.566,0.065-21.551,2.092-26.115c0.816-1.844,3.064,1.387,4.377,6.236
				C22.351,188.788,24.883,202.169,25.746,214.593z"/>
			<path class="st12" d="M268.161,430.001c7.074-8.491,16.712-18.189,26.56-28.309c9.873-10.081,18.025-18.757,23.685-24.003
				c2.286-2.141,2.515,0.551,0.471,5.25c-5.074,11.541-12.714,24.284-22.48,34.529c-9.037,9.538-18.296,15.269-25.849,17.574
				c0.734,0.091,1.15,0.136,1.222,0.144c0.476,0.052,0.585,0.658,0.246,1.356c-0.34,0.694-1.003,1.219-1.482,1.163
				c-0.018-0.002-0.065-0.008-0.125-0.015c3.666,4.788,6.278,12.281,7.223,21.97c1.025,10.561-0.101,21.809-2.82,31.456
				c-1.099,3.918-4.082,6.083-5.795,4.169c-4.211-4.693-7.426-13.063-8.523-23.766c-1.103-10.715,0.129-21.752,2.974-31.15
				c0.431-1.426,1.131-2.596,1.925-3.406c-6.573-1.116-19.331-3.604-37.297-10.935c3.753,5.816,6.453,13.744,7.466,23.165
				c1.168,10.881-0.121,21.775-3.195,30.586c-1.245,3.579-4.6,4.837-6.511,2.412c-4.706-5.955-8.244-15.26-9.452-26.283
				c-1.211-11.035,0.136-21.717,3.282-30.28c0.391-1.067,0.985-1.905,1.672-2.49c-11.78-5.277-25.423-12.596-40.236-22.601
				c4.192,6.949,7.253,15.928,8.371,26.029c1.24,11.201-0.133,21.74-3.379,29.716c-1.315,3.241-4.843,3.593-6.839,0.655
				c-4.921-7.218-8.575-17.457-9.824-28.8c-1.249-11.355,0.136-21.683,3.397-29.41c0.515-1.221,1.368-1.986,2.333-2.304
				c-27.085-19.125-57.572-47.556-85.2-84.819c4.22,9.373,7.387,20.471,8.503,31.732c1.177,11.824-0.135,21.672-3.184,28.022
				c-1.239,2.581-4.528,1.169-6.364-2.764c-4.54-9.675-7.829-21.735-8.953-33.7c-1.12-11.977,0.114-21.615,3.071-27.716
				c0.64-1.32,1.854-1.474,3.131-0.756c-12.329-17.075-24.009-35.808-34.585-55.721c3.567,10.266,6.271,21.852,7.24,33.097
				c1.052,12.123-0.125,21.639-2.831,27.209c-1.101,2.265-4.005,0.005-5.614-4.406c-3.982-10.855-6.816-23.789-7.786-36.053
				c-0.963-12.276,0.093-21.582,2.655-26.903c0.544-1.129,1.569-0.992,2.66,0.007c-13.059-25.488-24.253-52.76-33.235-80.267
				c-0.3-0.917-0.291-1.588,0.019-1.499c0.01,0.003,0.02,0.006,0.031,0.011c0.311,0.13,0.787,0.918,1.08,1.798
				c0.831,2.496,1.682,4.994,2.549,7.486c0.233-0.398,0.726-0.351,1.509,0.278c5.656,4.576,13.967,12.847,24.252,22.781
				c10.261,9.974,20.519,19.761,28.348,28.409c3.183,3.491,3.284,6.619,0.19,6.073c-7.605-1.39-17.753-6.658-28.042-16.585
				c-9.093-8.728-16.76-19.647-22.431-30.29c8.174,22.121,17.779,43.835,28.579,64.348c-0.118-1.285,0.538-1.903,2.026-1.398
				c6.993,2.386,17.018,7.691,28.889,14.355c11.855,6.705,23.284,13.52,31.895,19.967c3.498,2.598,3.646,5.711,0.284,6.045
				c-8.275,0.781-19.519-1.515-31.4-8.155c-11.413-6.336-21.306-15.553-28.522-24.881c10.618,19.559,22.301,37.938,34.602,54.679
				c-0.473-1.576,0.212-2.674,2.133-2.608c7.872,0.272,18.999,2.699,31.792,6.179c12.784,3.519,24.789,7.425,33.745,11.705
				c3.634,1.72,3.826,4.798,0.372,5.982c-8.512,2.875-20.252,3.463-33.053,0.025c-12.617-3.349-23.879-10.01-32.134-17.439
				c12.588,16.768,25.759,31.815,38.926,44.944c-0.926-1.661-0.297-3.221,1.985-3.717c8.34-1.82,20.015-2.26,33.115-1.968
				c13.1,0.331,25.118,1.313,33.996,3.404c3.6,0.832,3.827,3.857,0.444,5.881c-8.345,4.948-20.022,8.409-33.122,8.175
				c-13.099-0.194-25.115-4.067-33.989-9.447c-0.081-0.049-0.151-0.101-0.228-0.15c15.69,15.41,31.304,28.08,45.895,38.166
				c-0.742-1.351-0.086-2.954,2.059-4.031c8.34-4.195,19.94-7.898,32.648-11.255c12.717-3.318,24.104-5.703,32.425-6.163
				c3.371-0.201,3.652,2.726,0.555,5.698c-7.648,7.283-18.568,14.021-31.257,17.469c-12.602,3.466-24.557,3.02-33.599,0.218
				c15.777,10.657,30.249,18.282,42.596,23.646c0.026-1.037,0.751-2.273,2.212-3.447c7.926-6.361,18.851-13.079,30.476-19.828
				c11.641-6.71,21.734-12.244,28.973-15.092c2.929-1.169,3.201,1.65,0.543,5.493c-6.574,9.431-16.161,19.187-27.738,26.045
				c-10.402,6.201-20.622,9.008-28.905,9.157c17.576,7.054,30.151,9.479,36.819,10.574
				C266.053,433.375,266.681,431.777,268.161,430.001z"/>
		</g>
		<g class="st17">
			<path class="st12" d="M1181.928,207.403c1.263-11.137,0.073-20.859-2.901-27.763c-1.206-2.793-4.517-2.404-6.426,0.727
				c-4.701,7.747-8.256,17.814-9.541,28.805c-1.287,10.98-0.069,20.889,2.943,28.033c1.222,2.903,4.559,2.669,6.465-0.481
				C1177.17,228.98,1180.664,218.529,1181.928,207.403z"/>
			<path class="st12" d="M1274.927,49.524c-0.904,11.907-0.036,20.94,2.036,25.91c0.845,2.021,3.102-0.628,4.356-5.162
				c3.109-11.158,5.289-24.169,6.079-36.222c0.783-12.065,0.059-20.91-1.826-25.64c-0.759-1.912-2.898,0.893-4.165,5.408
				C1278.299,24.978,1275.822,37.605,1274.927,49.524z"/>
			<path class="st12" d="M1042.356,235.333c-6.706-8.772-15.866-18.948-25.245-29.636c-9.403-10.65-17.187-19.88-22.602-25.61
				c-2.187-2.336-2.423,0.194-0.483,4.937c4.814,11.652,12.073,24.723,21.368,35.541c8.601,10.068,17.423,16.448,24.639,19.36
				c-0.703,0.018-1.102,0.021-1.171,0.022c-0.456,0.004-0.567,0.573-0.246,1.272c0.32,0.695,0.951,1.26,1.409,1.251
				c0.016,0,0.062-0.001,0.12-0.003c-3.547,4.228-6.105,11.128-7.083,20.285c-1.061,9.982-0.07,20.834,2.455,30.317
				c1.021,3.851,3.854,6.214,5.505,4.552c4.061-4.074,7.202-11.772,8.337-21.9c1.142-10.14,0.054-20.804-2.592-30.046
				c-0.401-1.403-1.061-2.585-1.815-3.433c6.301-0.458,18.531-1.681,35.766-7.201c-3.637,5.255-6.288,12.616-7.338,21.545
				c-1.21,10.315-0.073,20.852,2.787,29.556c1.156,3.535,4.351,5.032,6.197,2.874c4.546-5.297,8.007-13.913,9.259-24.374
				c1.256-10.472,0.066-20.822-2.863-29.285c-0.364-1.054-0.924-1.906-1.575-2.523c11.303-4.081,24.396-9.997,38.618-18.415
				c-4.064,6.336-7.066,14.706-8.225,24.307c-1.286,10.647-0.073,20.87,2.949,28.795c1.225,3.219,4.586,3.851,6.517,1.196
				c4.76-6.521,8.338-16.054,9.633-26.847c1.296-10.805,0.072-20.841-2.966-28.524c-0.48-1.215-1.285-2.017-2.203-2.4
				c26.005-16.192,55.291-41.091,81.836-74.517c-4.086,8.658-7.191,19.076-8.35,29.833c-1.222,11.295-0.061,20.906,2.782,27.312
				c1.155,2.604,4.294,1.55,6.073-2.071c4.398-8.903,7.622-20.223,8.79-31.664c1.164-11.452,0.073-20.877-2.683-27.042
				c-0.596-1.334-1.748-1.596-2.965-1.021c11.846-15.336,23.069-32.277,33.231-50.387c-3.454,9.542-6.106,20.458-7.111,31.223
				c-1.092,11.606-0.05,20.923,2.475,26.6c1.027,2.308,3.799,0.444,5.359-3.64c3.859-10.048,6.639-22.226,7.647-33.978
				c1.001-11.763,0.067-20.894-2.319-26.33c-0.507-1.154-1.477-1.136-2.518-0.291c12.547-23.208,23.301-48.193,31.926-73.517
				c0.287-0.844,0.283-1.496-0.009-1.456c-0.009,0.001-0.019,0.003-0.029,0.006c-0.293,0.08-0.748,0.773-1.029,1.584
				c-0.798,2.298-1.616,4.596-2.447,6.888c-0.217-0.418-0.683-0.444-1.425,0.057c-5.361,3.642-13.253,10.591-23.038,19.065
				c-9.762,8.513-19.541,16.968-27.022,24.586c-3.043,3.074-3.164,6.085-0.23,5.847c7.211-0.628,16.857-4.719,26.653-13.175
				c8.659-7.432,15.969-17.041,21.386-26.578c-7.85,20.317-17.076,40.177-27.453,58.841c0.121-1.23-0.495-1.899-1.907-1.57
				c-6.637,1.558-16.168,5.675-27.477,11.022c-11.292,5.385-22.2,10.99-30.437,16.491c-3.346,2.216-3.515,5.201-0.324,5.8
				c7.853,1.437,18.549,0.183,29.872-5.129c10.877-5.063,20.323-12.971,27.225-21.219c-10.202,17.778-21.427,34.388-33.246,49.414
				c0.462-1.477-0.18-2.6-2.003-2.71c-7.474-0.452-18.061,0.92-30.254,3.221c-12.184,2.338-23.649,5.156-32.219,8.573
				c-3.478,1.371-3.689,4.314-0.41,5.721c8.082,3.427,19.253,4.924,31.457,2.674c12.029-2.18,22.784-7.615,30.685-14.031
				c-12.094,15.033-24.748,28.404-37.395,39.949c0.896-1.522,0.312-3.076-1.855-3.742c-7.92-2.441-19.029-3.801-31.517-4.547
				c-12.488-0.708-23.969-0.692-32.466,0.621c-3.446,0.518-3.691,3.401-0.478,5.606c7.925,5.397,19.037,9.632,31.526,10.444
				c12.488,0.85,23.964-1.9,32.457-6.343c0.077-0.04,0.144-0.084,0.219-0.126c-15.071,13.535-30.066,24.462-44.075,32.979
				c0.721-1.238,0.11-2.829-1.927-4.035c-7.917-4.694-18.95-9.162-31.066-13.393c-12.123-4.194-22.998-7.404-30.963-8.541
				c-3.226-0.475-3.521,2.3-0.58,5.404c7.262,7.612,17.651,14.965,29.744,19.294c12.01,4.34,23.423,4.868,32.073,2.902
				c-15.146,8.969-29.038,15.112-40.884,19.226c-0.016-0.995-0.697-2.239-2.084-3.485c-7.519-6.751-17.908-14.09-28.987-21.561
				c-11.094-7.433-20.732-13.657-27.661-17.087c-2.803-1.404-3.084,1.258-0.562,5.189c6.241,9.651,15.357,19.879,26.384,27.464
				c9.908,6.854,19.657,10.411,27.573,11.246c-16.862,5.285-28.918,6.466-35.31,6.893
				C1044.347,238.752,1043.758,237.167,1042.356,235.333z"/>
		</g>
		<g class="st18">
			<path class="st6" d="M950.148,397.31c1.013,39.6,34.118,57.618,72.156,65.865c37.193,8.23,79.319,6.689,78.848,6.768
				c-0.19,0.025-6.881-11.68-19.536-26.77c-12.337-15.032-30.638-33.449-46.703-45.526c-25.193-19.195-49.411-28.004-64.426-27.889
				C955.061,369.943,948.839,379.05,950.148,397.31z"/>
			<path class="st19" d="M1063.648,452.126c-0.357,0.557-0.96,0.871-1.36,0.705c-42.147-17.99-86.098-48.44-87.119-48.677
				c-0.417-0.28-0.548-0.943-0.288-1.488c0.257-0.543,0.805-0.756,1.227-0.476c1.02,0.231,45.208,30.57,87.457,48.544
				c0.41,0.17,0.459,0.778,0.105,1.358C1063.664,452.103,1063.656,452.115,1063.648,452.126z"/>
		</g>
	</g>
</g>
<g id="路" class="st0">
</g>
<g id="青蛙" class="st0">
</g>
<g id="上葉" class="st0">
</g>
<g id="圖層_11">
</g>
<g id="點" class="st0">
</g>
<g id="雜訊" class="st0">
</g>
<g id="path_拷貝" class="st0">
</g>
<g id="path" class="st0">
</g>
</svg>
