<?xml version="1.0" encoding="utf-8"?>
<!-- Generator: Adobe Illustrator 25.0.1, SVG Export Plug-In . SVG Version: 6.00 Build 0)  -->
<svg version="1.1" xmlns="http://www.w3.org/2000/svg" xmlns:xlink="http://www.w3.org/1999/xlink" x="0px" y="0px" width="1200px"
	 height="800px" viewBox="0 0 1200 800" style="enable-background:new 0 0 1200 800;" xml:space="preserve">
<style type="text/css">
	.st20{opacity:0.5;fill:#00080D;}
</style>

<g id="路">
	<path class="st20" d="M1096.334,272.748c-35.14-59.343-93.485-103.16-173.418-130.235
		c-151.26-51.235-360.658-37.274-487.078,32.475c-32.933,18.17-60.745,42.819-82.666,73.263
		c-20.652,28.683-35.095,61.735-41.768,95.583c-5.834,29.599-5.765,58.797,0.207,86.781c6.294,29.496,18.845,56.089,37.304,79.038
		c27.359,34.015,73.297,60.662,132.848,77.062c53.127,14.631,114.61,20.258,173.126,15.839
		c99.112-7.479,173.065-41.19,202.899-92.49c27.325-46.988,28.999-96.813,4.715-140.299c-15.604-27.939-41.069-51.816-73.646-69.048
		c-31.855-16.851-68.458-26.261-105.849-27.211c-11.066-0.308-20.223,8.442-20.502,19.485c-0.281,11.042,8.442,20.221,19.484,20.502
		c62.659,1.593,121.167,32.044,145.589,75.775c17.365,31.095,15.854,65.911-4.369,100.687
		c-11.221,19.295-33.107,36.191-63.294,48.862c-29.83,12.521-67.188,20.769-108.037,23.851
		c-54.049,4.08-110.69-1.077-159.496-14.517c-51.404-14.156-90.236-36.137-112.299-63.567
		c-14.501-18.028-24.377-38.995-29.354-62.315c-4.834-22.657-4.862-46.443-0.081-70.697c5.569-28.25,17.666-55.896,34.983-79.947
		c18.431-25.598,41.824-46.328,69.528-61.612c56.902-31.395,135.097-51.589,220.18-56.865
		c84.098-5.212,167.464,4.464,234.742,27.252c70.618,23.92,121.702,61.848,151.832,112.73
		c23.836,40.254,35.149,88.069,34.585,146.177c-0.453,46.688-28.096,98.849-75.841,143.105
		c-38.908,36.065-108.78,83.281-220.699,103.404c-94.556,17.002-199.467,18.417-303.392,4.088
		c-90.774-12.516-174.85-36.738-230.669-66.46c-48.708-25.936-88.64-68.076-115.479-121.867
		c-24.436-48.975-36.142-103.99-32.96-154.912c6.991-111.882,44.167-206.504,74.123-266.181c1.941-3.866,3.877-7.64,5.803-11.319
		c10.162-19.411,15.468-29.613,18.044-34.612c6.462-8.534,5.083-20.71-3.276-27.54c-8.552-6.989-21.152-5.721-28.142,2.831
		C182.748,11.392,179,18,164.517,45.742c-2.648,5.073-5.401,10.285-8.127,15.695c-31.863,63.231-71.407,163.61-78.851,282.734
		c-3.614,57.842,9.558,120.085,37.09,175.265c30.573,61.274,76.381,109.449,132.472,139.314
		c59.813,31.848,148.75,57.646,244.005,70.778c49.187,6.781,98.612,10.164,147.186,10.163
		c58.119-0.001,115.013-4.845,168.748-14.507c121.445-21.837,197.987-73.741,240.813-113.438
		c55.776-51.702,88.087-114.412,88.646-172.052C1137.127,374.986,1123.614,318.817,1096.334,272.748z"/>
</g>
</svg>
