<?xml version="1.0" encoding="utf-8"?>
<!-- Generator: Adobe Illustrator 25.0.1, SVG Export Plug-In . SVG Version: 6.00 Build 0)  -->
<svg version="1.1" xmlns="http://www.w3.org/2000/svg" xmlns:xlink="http://www.w3.org/1999/xlink" x="0px" y="0px" width="1200px"
	 height="800px" viewBox="0 0 1200 800" style="enable-background:new 0 0 1200 800;" xml:space="preserve">
<style type="text/css">
	.st20{opacity:0.5;fill:#00080D;}
</style>

<g id="路">
	<path class="st20" d="M638.291,739.691c-48.573,0.001-97.999-3.382-147.186-10.163c-95.255-13.133-184.192-38.931-244.005-70.778
		c-56.09-29.865-101.898-78.04-132.472-139.314c-27.532-55.18-40.704-117.423-37.09-175.265
		c7.443-119.124,46.987-219.503,78.851-282.734c34.589-68.641,67.25-108.912,68.624-110.592c6.99-8.552,19.59-9.82,28.142-2.831
		c8.549,6.986,9.82,19.576,2.842,28.129l0,0c-0.314,0.385-31.758,39.287-64.414,104.341
		c-29.956,59.677-67.132,154.299-74.123,266.181c-3.182,50.922,8.524,105.937,32.96,154.912
		c26.839,53.791,66.771,95.932,115.479,121.867c55.819,29.722,139.895,53.944,230.669,66.46
		c103.925,14.329,208.836,12.914,303.392-4.088c111.919-20.123,181.791-67.339,220.699-103.404
		c47.745-44.257,75.388-96.417,75.841-143.105c0.564-58.108-10.749-105.923-34.585-146.177
		c-30.13-50.882-81.214-88.81-151.832-112.73c-67.278-22.788-150.645-32.464-234.742-27.252
		c-85.083,5.275-163.278,25.47-220.18,56.865c-27.704,15.285-51.097,36.014-69.528,61.612
		c-17.317,24.052-29.415,51.697-34.983,79.947c-4.781,24.254-4.754,48.041,0.081,70.697c4.977,23.32,14.853,44.287,29.354,62.315
		c22.063,27.431,60.896,49.411,112.299,63.567c48.806,13.439,105.447,18.597,159.496,14.517
		c40.849-3.082,78.207-11.329,108.037-23.851c30.187-12.671,52.073-29.567,63.294-48.862c20.224-34.775,21.734-69.592,4.369-100.687
		c-24.422-43.73-82.93-74.182-145.589-75.775c-11.042-0.281-19.766-9.46-19.484-20.502c0.279-11.043,9.436-19.793,20.502-19.485
		c37.391,0.951,73.993,10.36,105.849,27.211c32.577,17.232,58.043,41.108,73.646,69.048c24.284,43.485,22.61,93.311-4.715,140.299
		c-29.834,51.3-103.787,85.012-202.899,92.49c-58.516,4.419-119.999-1.208-173.126-15.839
		c-59.551-16.399-105.489-43.047-132.848-77.062c-18.459-22.949-31.01-49.542-37.304-79.038
		c-5.972-27.984-6.041-57.182-0.207-86.781c6.672-33.849,21.115-66.901,41.768-95.583c21.92-30.444,49.733-55.093,82.666-73.263
		c126.419-69.749,335.818-83.71,487.078-32.475c79.933,27.075,138.278,70.892,173.418,130.235
		c27.28,46.069,40.793,102.238,40.165,166.946c-0.56,57.64-32.87,120.35-88.646,172.052
		c-42.826,39.697-119.368,91.602-240.813,113.438C753.304,734.847,696.41,739.69,638.291,739.691z"/>
</g>
</svg>
