<?xml version="1.0" encoding="utf-8"?>
<!-- Generator: Adobe Illustrator 25.0.1, SVG Export Plug-In . SVG Version: 6.00 Build 0)  -->
<svg version="1.1" xmlns="http://www.w3.org/2000/svg" xmlns:xlink="http://www.w3.org/1999/xlink" x="0px" y="0px" width="175px"
	 height="175px" viewBox="0 0 175 175" style="enable-background:new 0 0 175 175;" xml:space="preserve">
<style type="text/css">
	.st0{display:none;}
	.st1{display:inline;}
	.st2{fill:#52B380;}
	.st3{fill:none;stroke:#AAF1D9;stroke-width:2;stroke-linecap:round;stroke-miterlimit:10;}
	.st4{fill:none;stroke:#002129;stroke-width:3;stroke-linecap:round;stroke-miterlimit:10;}
	.st5{display:inline;fill:#79E0A8;}
	.st6{fill:#79E0A8;}
	.st7{display:inline;fill:#002129;}
	.st8{display:inline;opacity:0.24;}
	.st9{display:inline;opacity:0.11;}
	.st10{display:inline;opacity:0.62;}
	.st11{fill:#254856;}
	.st12{fill:#436F70;}
	.st13{display:inline;opacity:0.46;}
	.st14{fill:#274854;}
	.st15{fill:#638199;}
	.st16{fill:#1F3B44;}
	.st17{display:inline;opacity:0.3;}
	.st18{display:inline;opacity:0.2;}
	.st19{fill:#002129;}
	.st20{display:inline;opacity:0.1;fill:#00080D;}
	.st21{opacity:0.34;}
	.st22{fill:#83BE7C;}
	.st23{fill:#A2E79D;}
	.st24{fill:#C7E7C3;}
	.st25{opacity:0.65;}
	.st26{fill:#AAF1D9;}
	.st27{fill:#439166;}
	.st28{display:inline;opacity:0.65;}
	.st29{opacity:0.56;}
	.st30{opacity:0.3;}
	.st31{opacity:0.0233;}
	.st32{fill:#FFFFFF;}
	.st33{opacity:0.017;}
	.st34{opacity:0.0578;}
	.st35{opacity:0.1868;}
	.st36{opacity:0.2141;}
	.st37{opacity:0.2444;}
	.st38{opacity:0.2934;}
	.st39{opacity:0.8966;}
	.st40{opacity:0.8157;}
	.st41{opacity:0.1958;}
	.st42{opacity:0.055;}
	.st43{opacity:0.1845;}
	.st44{opacity:0.2628;}
	.st45{opacity:0.1595;}
	.st46{opacity:0.2794;}
	.st47{opacity:0.1885;}
	.st48{opacity:0.4713;}
	.st49{opacity:0.3983;}
	.st50{opacity:0.1625;}
	.st51{opacity:0.2883;}
	.st52{opacity:0.434;}
	.st53{opacity:0.1645;}
	.st54{opacity:0.1242;}
	.st55{opacity:0.1068;}
	.st56{opacity:0.0652;}
	.st57{opacity:0.2094;}
	.st58{opacity:0.1565;}
	.st59{opacity:0.3417;}
	.st60{opacity:0.2449;}
	.st61{opacity:0.2293;}
	.st62{opacity:0.1949;}
	.st63{opacity:0.632;}
	.st64{opacity:0.121;}
	.st65{opacity:0.0677;}
	.st66{opacity:0.0332;}
	.st67{opacity:0.2805;}
	.st68{opacity:0.5054;}
	.st69{opacity:0.2391;}
	.st70{opacity:0.4063;}
	.st71{opacity:0.1637;}
	.st72{opacity:0.044;}
	.st73{opacity:0.0739;}
	.st74{opacity:0.052;}
	.st75{opacity:0.0429;}
	.st76{opacity:0.0314;}
	.st77{opacity:0.3285;}
	.st78{opacity:0.5065;}
	.st79{opacity:0.2088;}
	.st80{opacity:0.3257;}
	.st81{opacity:0.316;}
	.st82{opacity:0.7164;}
	.st83{opacity:0.122;}
	.st84{opacity:0.1284;}
	.st85{display:inline;opacity:0.5;}
	.st86{display:inline;fill:none;stroke:#000000;stroke-miterlimit:10;}
</style>
<g id="零件" class="st0">
	<g class="st1">
		<path class="st6" d="M47.665,177.862c0.208,4.893,1.339,9.293,3.012,12.495c0.678,1.298,2.003,1.242,2.569-0.109
			c1.395-3.332,2.149-7.813,1.941-12.706c-0.208-4.893-1.339-9.293-3.012-12.495c-0.678-1.298-2.003-1.242-2.569,0.109
			C48.212,168.489,47.457,172.97,47.665,177.862z"/>
		<path class="st6" d="M-40.205,260.009c-3.31-1.446-7.779-2.27-12.674-2.138c-4.895,0.132-9.313,1.195-12.541,2.818
			c-1.309,0.658-1.273,1.984,0.069,2.57c3.31,1.446,7.779,2.27,12.674,2.138c4.542-0.122,8.671-1.048,11.821-2.476
			c-0.288,0.275-0.452,0.43-0.48,0.457c-0.188,0.178-0.196,0.474-0.018,0.661c0.177,0.186,0.474,0.196,0.661,0.018
			c0.007-0.007,0.025-0.024,0.049-0.047c-1.178,3.225-1.797,7.36-1.607,11.843c0.208,4.893,1.339,9.293,3.012,12.495
			c0.678,1.298,2.003,1.242,2.569-0.109c1.395-3.332,2.149-7.813,1.941-12.706c-0.208-4.893-1.339-9.293-3.012-12.495
			c-0.254-0.486-0.598-0.782-0.959-0.891c2.53-2.436,7.321-7.089,13.563-13.329c-1.051,3.139-1.592,7.06-1.413,11.292
			c0.208,4.893,1.339,9.293,3.012,12.495c0.678,1.298,2.003,1.242,2.569-0.109c1.395-3.332,2.149-7.813,1.941-12.706
			c-0.208-4.893-1.339-9.293-3.012-12.495c-0.208-0.399-0.478-0.668-0.767-0.813c4.054-4.075,8.619-8.722,13.506-13.794
			c-1.139,3.201-1.735,7.271-1.548,11.678c0.208,4.893,1.339,9.293,3.012,12.495c0.678,1.298,2.003,1.242,2.569-0.109
			c1.395-3.332,2.149-7.813,1.941-12.706c-0.208-4.893-1.339-9.293-3.012-12.495c-0.264-0.506-0.627-0.803-1.004-0.901
			c8.926-9.308,18.809-19.923,28.544-30.989c-1.267,3.275-1.942,7.555-1.744,12.21c0.208,4.893,1.339,9.293,3.012,12.495
			c0.678,1.298,2.003,1.242,2.569-0.109c1.395-3.332,2.149-7.813,1.941-12.706c-0.208-4.893-1.339-9.293-3.012-12.495
			c-0.361-0.692-0.907-0.995-1.423-0.927c4.381-5.005,8.721-10.093,12.92-15.187c-1.204,3.241-1.839,7.419-1.646,11.953
			c0.208,4.893,1.339,9.293,3.012,12.495c0.678,1.298,2.003,1.242,2.569-0.109c1.395-3.332,2.149-7.813,1.941-12.706
			c-0.208-4.893-1.339-9.293-3.012-12.495c-0.355-0.679-0.886-0.984-1.393-0.931c5.265-6.439,10.285-12.871,14.856-19.138
			c0.152-0.209,0.107-0.502-0.102-0.654c-0.007-0.005-0.014-0.01-0.021-0.014c-0.207-0.135-0.486-0.085-0.633,0.116
			c-0.417,0.572-0.839,1.145-1.263,1.72c-0.177-0.302-0.501-0.564-0.972-0.726c-3.415-1.179-7.935-1.646-12.804-1.126
			s-9.189,1.93-12.277,3.804c-1.252,0.76-1.112,2.079,0.273,2.557c3.415,1.179,7.935,1.646,12.804,1.126
			c4.296-0.459,8.162-1.611,11.134-3.162c-3.873,5.152-8.013,10.39-12.312,15.63c-0.016-0.511-0.39-0.996-1.112-1.255
			c-3.4-1.217-7.912-1.735-12.785-1.27c-4.873,0.465-9.206,1.825-12.315,3.663c-1.261,0.745-1.135,2.065,0.244,2.559
			c3.4,1.217,7.912,1.735,12.785,1.27c4.676-0.446,8.852-1.718,11.929-3.444c-4.172,5.051-8.481,10.094-12.827,15.054
			c0.113-0.588-0.253-1.188-1.078-1.494c-3.385-1.255-7.89-1.824-12.767-1.415c-4.877,0.409-9.224,1.72-12.353,3.522
			c-1.269,0.731-1.158,2.052,0.215,2.561c3.385,1.255,7.89,1.824,12.767,1.415c4.804-0.403,9.092-1.683,12.21-3.443
			c-4.422,5.027-8.875,9.961-13.255,14.723c0.265-0.648-0.076-1.364-0.997-1.718c-3.37-1.294-7.868-1.913-12.748-1.559
			s-9.242,1.615-12.39,3.381c-1.277,0.716-1.181,2.038,0.186,2.563c3.37,1.294,7.868,1.913,12.748,1.559
			c4.88-0.354,9.242-1.615,12.39-3.381c0.029-0.016,0.053-0.034,0.08-0.051c-5.21,5.651-10.309,11.05-15.12,16.06
			c0.195-0.612-0.144-1.273-1.002-1.625c-3.34-1.37-7.823-2.091-12.711-1.849c-4.888,0.243-9.277,1.405-12.465,3.1
			c-1.293,0.687-1.227,2.011,0.128,2.567c3.34,1.37,7.823,2.091,12.711,1.849c4.858-0.241,9.223-1.392,12.406-3.069
			c-5.204,5.407-10.053,10.341-14.319,14.626c-0.072-0.439-0.413-0.855-1.026-1.114c-3.325-1.408-7.801-2.181-12.693-1.993
			c-4.891,0.187-9.295,1.3-12.503,2.959c-1.301,0.672-1.25,1.998,0.098,2.568c3.325,1.408,7.801,2.181,12.693,1.993
			c4.402-0.169,8.405-1.088,11.501-2.479c-6.121,6.12-10.852,10.718-13.425,13.197C-39.171,260.81-39.513,260.311-40.205,260.009z"
			/>
	</g>
</g>
<g id="底色" class="st0">
</g>
<g id="底葉" class="st0">
</g>
<g id="路" class="st0">
</g>
<g id="青蛙" class="st0">
</g>
<g id="上葉" class="st0">
</g>
<g id="圖層_11">
	<g>
		<circle class="st21" cx="87.5" cy="87.5" r="87.5"/>
		<g>
			<path class="st22" d="M72.821,26.814L25.726,58.923c-8.903,6.07-12.636,17.352-9.11,27.535l17.352,50.115
				c3.329,9.614,12.384,16.061,22.558,16.061h59.485c10.174,0,19.229-6.448,22.558-16.061l17.352-50.115
				c3.526-10.182-0.207-21.465-9.11-27.535L99.716,26.814C91.604,21.284,80.933,21.284,72.821,26.814z"/>
			<circle class="st23" cx="86.11" cy="81.429" r="59.062"/>
			<path class="st24" d="M86.11,58.095c18.175,0,34.429-5.677,45.264-14.605c-10.834-12.913-27.089-21.125-45.264-21.125
				s-34.429,8.212-45.264,21.125C51.681,52.418,67.935,58.095,86.11,58.095z"/>
			<circle class="st23" cx="34.582" cy="48.859" r="19.688"/>
			<g>
				<circle class="st23" cx="135.207" cy="44.97" r="19.688"/>
			</g>
			<g>
				<ellipse transform="matrix(0.2438 -0.9698 0.9698 0.2438 69.2399 161.8996)" cx="138.439" cy="36.549" rx="8.321" ry="11.771"/>
			</g>
			<g>
				<ellipse transform="matrix(0.9267 -0.3758 0.3758 0.9267 -13.2251 15.1454)" cx="32.207" cy="41.47" rx="11.771" ry="9.271"/>
			</g>
			<g>
				<path class="st22" d="M130.673,139.956L130.673,139.956c-1.866-2.02-1.74-5.199,0.28-7.066l19.098-17.643
					c2.02-1.866,5.199-1.74,7.066,0.28v0c1.866,2.02,1.74,5.199-0.28,7.066l-19.098,17.643
					C135.719,142.102,132.539,141.976,130.673,139.956z"/>
				<path class="st22" d="M130.038,138.154L130.038,138.154c-0.814-2.627,0.67-5.442,3.296-6.256l24.835-7.694
					c2.627-0.814,5.442,0.67,6.256,3.296v0c0.814,2.627-0.67,5.442-3.296,6.256l-24.835,7.694
					C133.667,142.264,130.852,140.781,130.038,138.154z"/>
			</g>
			<g>
				<path class="st22" d="M43.404,141.356L43.404,141.356c-1.17,2.489-4.163,3.568-6.652,2.398l-23.53-11.06
					c-2.489-1.17-3.568-4.163-2.398-6.652l0,0c1.17-2.489,4.163-3.568,6.652-2.398l23.53,11.06
					C43.495,135.873,44.574,138.867,43.404,141.356z"/>
				<path class="st22" d="M41.974,142.622L41.974,142.622c-2.128,1.742-5.294,1.426-7.036-0.701l-16.47-20.118
					c-1.742-2.128-1.426-5.294,0.702-7.036l0,0c2.128-1.742,5.294-1.426,7.036,0.702l16.47,20.118
					C44.417,137.714,44.102,140.88,41.974,142.622z"/>
			</g>
		</g>
	</g>
</g>
<g id="點" class="st0">
</g>
<g id="雜訊" class="st0">
</g>
<g id="path_拷貝" class="st0">
</g>
<g id="path" class="st0">
</g>
</svg>
