<?xml version="1.0" encoding="utf-8"?>
<!-- Generator: Adobe Illustrator 25.0.1, SVG Export Plug-In . SVG Version: 6.00 Build 0)  -->
<svg version="1.1" xmlns="http://www.w3.org/2000/svg" xmlns:xlink="http://www.w3.org/1999/xlink" x="0px" y="0px" width="303.2px"
	 height="356.908px" viewBox="0 0 303.2 356.908" style="enable-background:new 0 0 303.2 356.908;" xml:space="preserve">
<style type="text/css">
	.st0{display:none;}
	.st1{display:inline;}
	.st2{fill:#52B380;}
	.st3{fill:none;stroke:#AAF1D9;stroke-width:2;stroke-linecap:round;stroke-miterlimit:10;}
	.st4{fill:none;stroke:#002129;stroke-width:3;stroke-linecap:round;stroke-miterlimit:10;}
	.st5{display:inline;fill:#79E0A8;}
	.st6{fill:#79E0A8;}
	.st7{display:inline;fill:#002129;}
	.st8{display:inline;opacity:0.24;}
	.st9{display:inline;opacity:0.11;}
	.st10{display:inline;opacity:0.62;}
	.st11{fill:#254856;}
	.st12{fill:#436F70;}
	.st13{display:inline;opacity:0.46;}
	.st14{fill:#274854;}
	.st15{fill:#638199;}
	.st16{fill:#1F3B44;}
	.st17{display:inline;opacity:0.3;}
	.st18{display:inline;opacity:0.2;}
	.st19{fill:#002129;}
	.st20{display:inline;opacity:0.1;fill:#00080D;}
	.st21{opacity:0.34;}
	.st22{fill:#83BE7C;}
	.st23{fill:#A2E79D;}
	.st24{fill:#C7E7C3;}
	.st25{opacity:0.65;}
	.st26{fill:#AAF1D9;}
	.st27{fill:#439166;}
	.st28{display:inline;opacity:0.65;}
	.st29{opacity:0.56;}
	.st30{opacity:0.3;}
	.st31{opacity:0.0233;}
	.st32{fill:#FFFFFF;}
	.st33{opacity:0.017;}
	.st34{opacity:0.0578;}
	.st35{opacity:0.1868;}
	.st36{opacity:0.2141;}
	.st37{opacity:0.2444;}
	.st38{opacity:0.2934;}
	.st39{opacity:0.8966;}
	.st40{opacity:0.8157;}
	.st41{opacity:0.1958;}
	.st42{opacity:0.055;}
	.st43{opacity:0.1845;}
	.st44{opacity:0.2628;}
	.st45{opacity:0.1595;}
	.st46{opacity:0.2794;}
	.st47{opacity:0.1885;}
	.st48{opacity:0.4713;}
	.st49{opacity:0.3983;}
	.st50{opacity:0.1625;}
	.st51{opacity:0.2883;}
	.st52{opacity:0.434;}
	.st53{opacity:0.1645;}
	.st54{opacity:0.1242;}
	.st55{opacity:0.1068;}
	.st56{opacity:0.0652;}
	.st57{opacity:0.2094;}
	.st58{opacity:0.1565;}
	.st59{opacity:0.3417;}
	.st60{opacity:0.2449;}
	.st61{opacity:0.2293;}
	.st62{opacity:0.1949;}
	.st63{opacity:0.632;}
	.st64{opacity:0.121;}
	.st65{opacity:0.0677;}
	.st66{opacity:0.0332;}
	.st67{opacity:0.2805;}
	.st68{opacity:0.5054;}
	.st69{opacity:0.2391;}
	.st70{opacity:0.4063;}
	.st71{opacity:0.1637;}
	.st72{opacity:0.044;}
	.st73{opacity:0.0739;}
	.st74{opacity:0.052;}
	.st75{opacity:0.0429;}
	.st76{opacity:0.0314;}
	.st77{opacity:0.3285;}
	.st78{opacity:0.5065;}
	.st79{opacity:0.2088;}
	.st80{opacity:0.3257;}
	.st81{opacity:0.316;}
	.st82{opacity:0.7164;}
	.st83{opacity:0.122;}
	.st84{opacity:0.1284;}
	.st85{display:inline;opacity:0.5;}
	.st86{display:inline;fill:none;stroke:#000000;stroke-miterlimit:10;}
</style>
<g id="零件" class="st0">
</g>
<g id="底色" class="st0">
</g>
<g id="底葉" class="st0">
</g>
<g id="路" class="st0">
</g>
<g id="青蛙" class="st0">
</g>
<g id="上葉" class="st0">
</g>
<g id="圖層_11">
	<g>
		<g class="st25">
			<path class="st2" d="M66.979,259.385c4.263-10.996,14.001-14.696,14.699-29.42c0.559-14.736-7.106-24.631-6.696-31.627
				c0.378-6.997,12.587-17.931,13.282-32.195c0.602-14.256-14.682-18.16-15.226-25.112c-0.625-6.945,4.448-14.968,4.326-26.933
				c-0.11-11.968-14.881-24.533-19.696-32.801c-4.696-8.297-14.75-22.326-21.16-21.641c-6.233,0.638-2.907,19.688-1.719,27.19
				c1.415,7.451-7.939,19.852-9.152,28.001c-1.162,8.14,12.351,16.749,13.843,25.816c1.515,9.066-7.952,20.045-9.56,28.688
				c-1.568,8.641,8.964,19.004,8.492,27.753c-0.474,8.748-7.931,15.382-12.323,23.936c-4.316,8.56,8.738,25.073,7.049,34.801
				c-1.577,9.738-25.898,22.107-32.208,34.302c-6.032,12.253,19.232,35.596,19.071,35.555c0.026,0.007,4.047,8.083,9.095,8.338
				c5.258,0.31,37.759-24.406,41.695-37.099C75.052,284.317,62.647,270.375,66.979,259.385z"/>
			<path class="st26" d="M47.345,97.431c-0.079-0.412,0.191-0.732,0.614-0.717c0.429,0.014,0.854,0.368,0.946,0.791
				c-0.031,0.392,5.089,21.733,7.158,45.988c2.512,24.204,1.974,51.321,0.863,62.108c-0.626,10.768-4.507,41.34-11.994,68.738
				c-6.889,27.492-17.384,51.81-17.437,52.246c-0.169,0.414-0.645,0.727-1.06,0.698c-0.415-0.029-0.613-0.384-0.447-0.796
				c0.001-0.002,0.002-0.003,0.002-0.006c0.054-0.436,10.541-24.754,17.422-52.245c7.479-27.397,11.352-57.966,11.975-68.731
				c1.106-10.776,1.64-37.883-0.876-62.078c-2.072-24.246-7.194-45.581-7.163-45.974C47.348,97.446,47.347,97.438,47.345,97.431z"/>
			<path class="st26" d="M55.477,129.222c0-0.007-0.001-0.013-0.002-0.02c-0.036-0.427,0.284-0.741,0.715-0.705
				c0.05,0.005,5.338,0.412,8.157-2.693c1.625-1.793,2.128-4.434,1.448-7.838c-0.086-0.429,0.191-0.773,0.616-0.773
				c0.427-0.001,0.842,0.344,0.927,0.771c0.771,3.864,0.161,6.89-1.753,8.989c-3.259,3.568-9.03,3.11-9.269,3.089
				C55.893,130.004,55.523,129.64,55.477,129.222z"/>
			<path class="st26" d="M58.506,179.866c0.001-0.007,0.001-0.013,0.001-0.02c0.019-0.431,0.379-0.749,0.805-0.712
				c0.05,0.004,5.285,0.417,8.499-2.722c1.853-1.812,2.692-4.482,2.445-7.932c-0.03-0.437,0.288-0.782,0.715-0.783
				c0.425-0.001,0.798,0.349,0.828,0.781c0.278,3.912-0.716,6.974-2.897,9.095c-3.712,3.605-9.424,3.142-9.661,3.12
				C58.823,180.656,58.497,180.288,58.506,179.866z"/>
			<path class="st26" d="M48.319,263.313c0.002-0.007,0.003-0.013,0.005-0.02c0.109-0.426,0.534-0.742,0.952-0.705
				c0.049,0.004,5.198,0.415,9.062-2.698c2.228-1.797,3.617-4.446,4.086-7.878c0.061-0.438,0.451-0.779,0.877-0.779
				c0.426-0.001,0.726,0.347,0.667,0.777c-0.531,3.894-2.158,6.928-4.777,9.031c-4.458,3.573-10.073,3.112-10.306,3.091
				C48.472,264.095,48.223,263.731,48.319,263.313z"/>
			<path class="st26" d="M39.884,207.562c0.007-0.074,0.012-0.122,0.014-0.139c0.05-0.43,0.43-0.749,0.854-0.711
				c0.425,0.037,0.725,0.433,0.681,0.848c0.004,0.055-0.562,5.339,2.357,8.755c1.692,1.972,4.264,2.97,7.67,2.965
				c0.427-0.001,0.753,0.349,0.729,0.781c-0.034,0.439-0.389,0.783-0.816,0.784c-3.862,0.005-6.806-1.165-8.779-3.48
				C39.494,213.72,39.809,208.501,39.884,207.562z"/>
			<path class="st26" d="M16.601,281.121c0.038-0.137,0.063-0.223,0.072-0.256c0.129-0.424,0.567-0.737,0.984-0.7
				c0.415,0.037,0.654,0.401,0.525,0.835c-0.014,0.1-3.035,10.274,1.322,16.849c2.551,3.817,7.194,5.741,13.884,5.733
				c0.427,0,0.679,0.34,0.564,0.761c-0.116,0.427-0.555,0.763-0.981,0.763c-7.147,0.008-12.119-2.082-14.877-6.232
				C13.764,292.318,16.156,282.838,16.601,281.121z"/>
			<path class="st26" d="M39.862,147.391c-0.005-0.074-0.006-0.121-0.007-0.138c-0.015-0.429,0.319-0.744,0.748-0.707
				c0.429,0.037,0.788,0.408,0.807,0.843c0.012,0.051,0.231,5.31,3.66,8.718c1.983,1.966,4.707,2.962,8.111,2.958
				c0.427,0,0.805,0.349,0.845,0.78c0.03,0.438-0.272,0.782-0.7,0.782c-3.862,0.005-6.979-1.164-9.298-3.473
				C40.388,153.517,39.927,148.324,39.862,147.391z"/>
		</g>
		<g class="st25">
			<path class="st27" d="M108.454,245.547c7.914-12.681,20.422-14.845,25.204-32.871c4.623-18.043-2.036-32.045,0.249-40.453
				c2.24-8.408,19.965-18.556,24.689-35.45c4.618-16.888-13.299-25.357-12.164-33.718c1.054-8.354,9.556-16.523,12.745-30.5
				c3.233-13.987-12.006-32.144-15.875-42.772c-3.661-10.676-12.6-28.993-21.162-29.761c-8.348-0.825-9.355,21.534-9.801,30.454
				c-0.216,8.865-15.376,20.824-18.886,29.986c-3.448,9.152,11.516,22.607,11.129,33.675c-0.35,11.063-14.754,21.706-18.718,31.645
				c-3.911,9.936,6.609,25.113,3.94,35.628c-2.646,10.513-13.234,16.727-20.473,26.134c-7.092,9.416,4.638,33.232,0.207,45.019
				c-4.282,11.796-35.765,21.288-45.927,35.315c-9.675,14.127,13.168,50.653,12.8,50.567c0.042,0.01,2.329,11.504,7.927,13.067
				c5.754,1.606,49.864-22.455,58.144-37.549C111.092,278.939,100.51,258.228,108.454,245.547z"/>
			<path class="st26" d="M125.592,45.741c0.01-0.495,0.442-0.795,0.978-0.674c0.546,0.123,0.992,0.637,0.995,1.146
				c-0.144,0.473,0.611,26.222-2.953,55.463c-3.029,29.181-10.378,61.855-14.398,74.794c-3.441,12.917-15.641,49.537-31.477,82.36
				c-15.127,32.935-33.89,62.073-34.079,62.597c-0.309,0.496-0.935,0.786-1.398,0.648c-0.461-0.138-0.586-0.648-0.282-1.143
				c0.001-0.002,0.002-0.004,0.004-0.007c0.189-0.524,18.918-29.669,34.009-62.606c15.799-32.826,27.96-69.444,31.386-82.357
				c4.002-12.926,11.315-45.587,14.315-74.756c3.534-29.229,2.754-54.967,2.898-55.44C125.592,45.758,125.59,45.75,125.592,45.741z"
				/>
			<path class="st26" d="M127.531,84.725c0.001-0.008,0.002-0.016,0.003-0.024c0.066-0.509,0.549-0.798,1.082-0.646
				c0.065,0.019,6.599,1.828,10.967-1.101c2.519-1.69,3.861-4.655,3.921-8.796c0.008-0.522,0.449-0.853,0.987-0.747
				c0.539,0.106,0.97,0.613,0.962,1.132c-0.072,4.702-1.655,8.091-4.618,10.069c-5.042,3.362-12.161,1.372-12.46,1.285
				C127.853,85.747,127.48,85.226,127.531,84.725z"/>
			<path class="st26" d="M118.513,145.675c0.001-0.009,0.005-0.016,0.006-0.024c0.131-0.514,0.651-0.806,1.163-0.653
				c0.062,0.019,6.367,1.846,11.106-1.112c2.733-1.707,4.449-4.701,5.035-8.895c0.075-0.531,0.557-0.863,1.082-0.756
				c0.526,0.108,0.892,0.62,0.818,1.146c-0.667,4.756-2.679,8.183-5.892,10.18c-5.468,3.394-12.334,1.385-12.623,1.298
				C118.705,146.707,118.398,146.182,118.513,145.675z"/>
			<path class="st26" d="M85.536,245.774c0.003-0.008,0.007-0.016,0.011-0.024c0.236-0.509,0.817-0.798,1.297-0.647
				c0.058,0.018,5.988,1.829,11.334-1.102c3.084-1.692,5.415-4.66,6.861-8.827c0.186-0.532,0.735-0.859,1.237-0.751
				c0.503,0.107,0.765,0.617,0.583,1.139c-1.646,4.729-4.36,8.12-7.982,10.099c-6.164,3.361-12.618,1.371-12.889,1.285
				C85.517,246.796,85.318,246.275,85.536,245.774z"/>
			<path class="st26" d="M89.121,174.528c0.026-0.089,0.045-0.145,0.049-0.167c0.162-0.513,0.698-0.805,1.202-0.651
				c0.504,0.153,0.776,0.714,0.623,1.209c-0.011,0.067-1.943,6.381,0.754,11.321c1.564,2.852,4.414,4.733,8.505,5.594
				c0.513,0.108,0.819,0.621,0.683,1.146c-0.15,0.53-0.66,0.864-1.173,0.756c-4.636-0.976-7.886-3.166-9.709-6.511
				C87.198,181.958,88.807,175.654,89.121,174.528z"/>
			<path class="st26" d="M44.009,260.304c0.078-0.163,0.127-0.268,0.146-0.307c0.253-0.507,0.841-0.793,1.318-0.642
				c0.477,0.152,0.664,0.673,0.409,1.193c-0.046,0.116-6.021,12.31-2.665,21.835c1.973,5.529,6.799,9.156,14.481,10.804
				c0.491,0.105,0.689,0.605,0.443,1.117c-0.248,0.519-0.84,0.841-1.331,0.737c-8.201-1.76-13.356-5.685-15.481-11.695
				C38.002,273.849,43.069,262.367,44.009,260.304z"/>
			<path class="st26" d="M103.419,102.177c0.013-0.088,0.022-0.144,0.025-0.166c0.085-0.51,0.579-0.8,1.106-0.647
				c0.527,0.152,0.883,0.681,0.802,1.201c0,0.062-0.997,6.341,2.431,11.265c1.985,2.841,5.115,4.718,9.334,5.577
				c0.529,0.107,0.911,0.62,0.853,1.144c-0.071,0.529-0.533,0.862-1.061,0.754c-4.781-0.975-8.356-3.16-10.674-6.494
				C102.598,109.562,103.271,103.295,103.419,102.177z"/>
		</g>
		<g class="st25">
			<path class="st2" d="M119.794,319.019c10.931-4.644,21.123,1.385,32.493-8.605c11.37-9.994,14.231-23.527,20.618-27.694
				c6.351-4.167,24.278,0.176,38.033-7.378c13.662-7.557,8.229-23.629,15.157-27.787c6.826-4.162,18.099-3.555,31.067-9.184
				c12.812-5.644,19.704-24.359,27.63-31.861c7.62-7.546,21.093-21.366,17.939-26.811c-3.234-5.462-26.029,4.108-34.492,8.263
				c-8.494,4.147-27.054,0.929-37.019,3.555c-10.093,2.603-13.849,18.982-22.783,25.022c-9.064,6.02-25.375,3.353-35.106,6.883
				c-9.846,3.519-14.352,19.523-22.696,24.737c-8.47,5.205-18.972,2.775-29.297,4.684c-10.604,1.904-16.174,26.148-24.409,32.304
				c-8.577,6.16-34.796-6.162-47.921-1.304c-14.261,4.957-8.165,50.288-7.169,50.156c-0.055,0.009-0.495,11.496,4.041,16.291
				c4.459,4.809,44.927,10.349,55.044,3.206C110.789,346.395,108.63,323.701,119.794,319.019z"/>
			<path class="st26" d="M260.945,203.59c0.448-0.244,0.946-0.131,1.12,0.259c0.178,0.396-0.047,0.929-0.499,1.189
				c-2.198,0.364-88.585,52.941-107.157,65.765c-22.122,12.879-107.316,70.487-106.555,70.825c-0.346,0.246-0.909,0.117-1.258-0.286
				c-0.347-0.401-0.349-0.923-0.007-1.169c0.002-0.001,0.003-0.002,0.005-0.003c-0.758-0.345,84.715-57.982,106.894-70.851
				c18.614-12.818,105.237-65.357,107.436-65.716C260.93,203.598,260.937,203.594,260.945,203.59z"/>
			<path class="st26" d="M228.916,225.443c0.006-0.004,0.015-0.008,0.021-0.011c0.445-0.241,0.954-0.102,1.137,0.311
				c0.011,0.049,2.343,5.094,7.231,6.179c2.816,0.626,5.944-0.182,9.325-2.395c0.427-0.279,0.951-0.185,1.178,0.206
				c0.227,0.391,0.068,0.933-0.354,1.21c-3.827,2.513-7.417,3.413-10.721,2.674c-5.627-1.256-8.179-6.768-8.269-7.001
				C228.282,226.208,228.485,225.689,228.916,225.443z"/>
			<path class="st26" d="M178.953,255.949c0.007-0.004,0.012-0.008,0.02-0.012c0.421-0.242,0.944-0.102,1.169,0.313
				c0.016,0.051,2.858,5.126,7.856,6.215c2.88,0.629,5.923-0.181,9.083-2.408c0.401-0.281,0.932-0.186,1.199,0.207
				c0.266,0.393,0.162,0.938-0.231,1.217c-3.57,2.525-7.073,3.43-10.451,2.688c-5.755-1.26-8.865-6.805-8.978-7.04
				C178.397,256.72,178.547,256.197,178.953,255.949z"/>
			<path class="st26" d="M102.513,305.035c0.006-0.004,0.011-0.008,0.018-0.011c0.381-0.242,0.928-0.102,1.219,0.311
				c0.024,0.052,3.685,5.095,8.861,6.174c2.982,0.624,5.896-0.179,8.694-2.39c0.36-0.281,0.903-0.185,1.232,0.206
				c0.329,0.39,0.315,0.932-0.035,1.208c-3.165,2.508-6.518,3.401-10.016,2.666c-5.957-1.247-9.964-6.754-10.116-6.99
				C102.081,305.802,102.147,305.282,102.513,305.035z"/>
			<path class="st26" d="M141.852,256.368c0.071-0.043,0.117-0.07,0.135-0.08c0.422-0.242,0.942-0.101,1.168,0.314
				c0.226,0.416,0.053,0.958-0.35,1.194c-0.045,0.035-5.19,3.053-6.298,8.112c-0.638,2.92,0.19,5.994,2.471,9.135
				c0.286,0.393,0.208,0.938-0.172,1.217c-0.393,0.273-0.921,0.186-1.209-0.207c-2.599-3.561-3.528-7.104-2.773-10.527
				C136.02,260.137,140.956,256.919,141.852,256.368z"/>
			<path class="st26" d="M66.518,290.52c0.123-0.081,0.203-0.132,0.234-0.15c0.394-0.242,0.932-0.101,1.204,0.314
				c0.272,0.416,0.183,0.94-0.217,1.191c-0.073,0.045-9.541,5.96-10.366,15.868c-0.469,5.745,2.07,11.749,7.578,17.832
				c0.353,0.388,0.366,0.925,0.031,1.2c-0.338,0.28-0.891,0.184-1.244-0.204c-5.908-6.496-8.623-12.963-8.101-19.208
				C56.479,297.488,64.981,291.539,66.518,290.52z"/>
			<path class="st26" d="M201.388,220.39c0.077-0.044,0.126-0.069,0.144-0.08c0.449-0.24,0.955-0.101,1.131,0.312
				c0.177,0.413-0.038,0.935-0.491,1.184c-0.046,0.033-5.553,3.025-7.262,8.055c-0.984,2.904-0.521,5.964,1.386,9.094
				c0.238,0.393,0.098,0.935-0.317,1.213c-0.426,0.273-0.944,0.186-1.185-0.207c-2.174-3.552-2.685-7.078-1.522-10.481
				C195.108,224.125,200.426,220.937,201.388,220.39z"/>
		</g>
	</g>
</g>
<g id="點" class="st0">
</g>
<g id="雜訊" class="st0">
</g>
<g id="path_拷貝" class="st0">
</g>
<g id="path" class="st0">
</g>
</svg>
