<?xml version="1.0" encoding="utf-8"?>
<!-- Generator: Adobe Illustrator 25.0.1, SVG Export Plug-In . SVG Version: 6.00 Build 0)  -->
<svg version="1.1" xmlns="http://www.w3.org/2000/svg" xmlns:xlink="http://www.w3.org/1999/xlink" x="0px" y="0px"
	 width="214.618px" height="225.252px" viewBox="0 0 214.618 225.252" style="enable-background:new 0 0 214.618 225.252;"
	 xml:space="preserve">
<style type="text/css">
	.st0{display:none;}
	.st1{display:inline;}
	.st2{fill:#52B380;}
	.st3{fill:none;stroke:#AAF1D9;stroke-width:2;stroke-linecap:round;stroke-miterlimit:10;}
	.st4{fill:none;stroke:#002129;stroke-width:3;stroke-linecap:round;stroke-miterlimit:10;}
	.st5{display:inline;fill:#79E0A8;}
	.st6{fill:#79E0A8;}
	.st7{display:inline;fill:#002129;}
	.st8{display:inline;opacity:0.24;}
	.st9{display:inline;opacity:0.11;}
	.st10{display:inline;opacity:0.62;}
	.st11{fill:#254856;}
	.st12{fill:#436F70;}
	.st13{display:inline;opacity:0.46;}
	.st14{fill:#274854;}
	.st15{fill:#638199;}
	.st16{fill:#1F3B44;}
	.st17{display:inline;opacity:0.3;}
	.st18{display:inline;opacity:0.2;}
	.st19{fill:#002129;}
	.st20{display:inline;opacity:0.1;fill:#00080D;}
	.st21{opacity:0.34;}
	.st22{fill:#83BE7C;}
	.st23{fill:#A2E79D;}
	.st24{fill:#C7E7C3;}
	.st25{opacity:0.65;}
	.st26{fill:#AAF1D9;}
	.st27{fill:#439166;}
	.st28{display:inline;opacity:0.65;}
	.st29{opacity:0.56;}
	.st30{opacity:0.3;}
	.st31{opacity:0.0233;}
	.st32{fill:#FFFFFF;}
	.st33{opacity:0.017;}
	.st34{opacity:0.0578;}
	.st35{opacity:0.1868;}
	.st36{opacity:0.2141;}
	.st37{opacity:0.2444;}
	.st38{opacity:0.2934;}
	.st39{opacity:0.8966;}
	.st40{opacity:0.8157;}
	.st41{opacity:0.1958;}
	.st42{opacity:0.055;}
	.st43{opacity:0.1845;}
	.st44{opacity:0.2628;}
	.st45{opacity:0.1595;}
	.st46{opacity:0.2794;}
	.st47{opacity:0.1885;}
	.st48{opacity:0.4713;}
	.st49{opacity:0.3983;}
	.st50{opacity:0.1625;}
	.st51{opacity:0.2883;}
	.st52{opacity:0.434;}
	.st53{opacity:0.1645;}
	.st54{opacity:0.1242;}
	.st55{opacity:0.1068;}
	.st56{opacity:0.0652;}
	.st57{opacity:0.2094;}
	.st58{opacity:0.1565;}
	.st59{opacity:0.3417;}
	.st60{opacity:0.2449;}
	.st61{opacity:0.2293;}
	.st62{opacity:0.1949;}
	.st63{opacity:0.632;}
	.st64{opacity:0.121;}
	.st65{opacity:0.0677;}
	.st66{opacity:0.0332;}
	.st67{opacity:0.2805;}
	.st68{opacity:0.5054;}
	.st69{opacity:0.2391;}
	.st70{opacity:0.4063;}
	.st71{opacity:0.1637;}
	.st72{opacity:0.044;}
	.st73{opacity:0.0739;}
	.st74{opacity:0.052;}
	.st75{opacity:0.0429;}
	.st76{opacity:0.0314;}
	.st77{opacity:0.3285;}
	.st78{opacity:0.5065;}
	.st79{opacity:0.2088;}
	.st80{opacity:0.3257;}
	.st81{opacity:0.316;}
	.st82{opacity:0.7164;}
	.st83{opacity:0.122;}
	.st84{opacity:0.1284;}
	.st85{display:inline;opacity:0.5;}
	.st86{display:inline;fill:none;stroke:#000000;stroke-miterlimit:10;}
</style>
<g id="零件" class="st0">
</g>
<g id="底色" class="st0">
</g>
<g id="底葉" class="st0">
</g>
<g id="路" class="st0">
</g>
<g id="青蛙" class="st0">
</g>
<g id="上葉" class="st0">
</g>
<g id="圖層_11">
	<g>
		<g class="st29">
			<g>
				<path class="st26" d="M177.374,67.251c-0.106-4.997-1.398-9.493-3.266-12.759c-0.761-1.324-2.083-1.267-2.562,0.111
					c-1.192,3.399-1.796,7.977-1.701,12.974c0.104,4.997,0.892,9.485,2.231,12.743c0.539,1.321,1.872,1.264,2.58-0.111
					C176.395,76.818,177.488,72.248,177.374,67.251z"/>
				<path class="st26" d="M205.448,16.282c1.708,4.826,3.939,9.22,6.331,12.43c0.965,1.302,2.279,1.246,2.544-0.109
					c0.644-3.34,0.269-7.813-1.451-12.636c-1.711-4.825-4.446-9.104-7.365-12.192c-1.186-1.252-2.49-1.197-2.527,0.105
					C202.884,7.095,203.747,11.455,205.448,16.282z"/>
				<path class="st26" d="M120.906,99.416c-2.987-1.45-7.286-2.278-12.208-2.146c-4.923,0.132-9.563,1.202-13.161,2.827
					c-1.457,0.659-1.739,1.986-0.541,2.571c2.953,1.444,7.203,2.264,12.134,2.132c4.573-0.122,8.946-1.043,12.445-2.47
					c-0.353,0.274-0.559,0.43-0.592,0.456c-0.232,0.178-0.313,0.473-0.182,0.66c0.131,0.185,0.424,0.195,0.657,0.018
					c0.007-0.007,0.032-0.024,0.061-0.047c-1.985,3.218-3.75,7.325-5.03,11.724c-1.389,4.802-1.947,9.057-1.583,12.127
					c0.146,1.244,1.493,1.19,2.613-0.105c2.756-3.195,5.215-7.531,6.596-12.336c1.387-4.803,1.442-9.181,0.548-12.38
					c-0.134-0.485-0.409-0.781-0.743-0.891c3.106-2.436,8.974-7.1,16.171-13.42c-1.528,3.179-2.771,7.139-3.548,11.381
					c-0.894,4.905-1,9.272-0.312,12.429c0.275,1.28,1.621,1.224,2.603-0.108c2.416-3.286,4.422-7.735,5.303-12.642
					c0.889-4.906,0.493-9.357-0.723-12.604c-0.152-0.404-0.384-0.678-0.653-0.825c4.615-4.133,9.655-8.865,14.788-14.041
					c-1.292,3.266-2.191,7.418-2.553,11.894c-0.395,4.97-0.054,9.415,0.96,12.634c0.41,1.305,1.746,1.249,2.591-0.11
					c2.077-3.351,3.626-7.878,4.01-12.849c0.392-4.971-0.451-9.461-1.994-12.73c-0.244-0.516-0.597-0.82-0.969-0.92
					c9.265-9.501,18.633-20.373,26.531-31.566c-0.723,3.311-0.807,7.655-0.21,12.398c0.633,4.984,1.896,9.481,3.584,12.751
					c0.681,1.326,2.006,1.269,2.569-0.111c1.375-3.403,1.986-7.982,1.342-12.965c-0.637-4.984-2.402-9.447-4.619-12.683
					c-0.477-0.7-1.078-1.006-1.582-0.936c3.504-5.055,6.71-10.162,9.518-15.222c-0.317,3.219,0.079,7.394,1.157,11.961
					c1.17,4.927,2.916,9.393,4.955,12.647c0.824,1.32,2.144,1.263,2.556-0.111c1.012-3.387,1.127-7.933-0.052-12.858
					c-1.175-4.927-3.42-9.318-5.989-12.495c-0.544-0.674-1.165-0.976-1.655-0.923c3.431-6.382,6.213-12.669,8.224-18.677
					c0.066-0.2-0.098-0.481-0.371-0.626c-0.009-0.005-0.018-0.009-0.026-0.014c-0.263-0.129-0.521-0.082-0.585,0.111
					c-0.182,0.548-0.369,1.098-0.564,1.65c-0.3-0.291-0.728-0.541-1.265-0.698c-3.894-1.131-8.613-1.576-13.265-1.079
					c-4.656,0.498-8.393,1.849-10.754,3.657c-0.956,0.732-0.314,2.009,1.245,2.473c3.851,1.144,8.538,1.598,13.218,1.093
					c4.128-0.446,7.574-1.565,9.949-3.064c-1.889,4.976-4.273,10.111-7.085,15.305c-0.16-0.506-0.677-0.987-1.473-1.242
					c-3.757-1.204-8.43-1.714-13.162-1.256c-4.734,0.459-8.658,1.803-11.259,3.627c-1.054,0.739-0.574,2.053,0.93,2.545
					c3.715,1.213,8.353,1.73,13.11,1.266c4.565-0.445,8.418-1.714,11.023-3.428c-2.788,5.017-5.962,10.078-9.434,15.086
					c0.009-0.594-0.468-1.199-1.349-1.507c-3.621-1.266-8.241-1.838-13.037-1.426c-4.797,0.412-8.885,1.733-11.704,3.553
					c-1.141,0.738-0.813,2.074,0.636,2.59c3.58,1.271,8.164,1.848,12.981,1.433c4.744-0.408,8.847-1.705,11.666-3.485
					c-3.571,5.081-7.436,10.099-11.463,14.952c0.216-0.661-0.184-1.39-1.135-1.751c-3.481-1.318-8.043-1.948-12.889-1.588
					c-4.848,0.36-9.087,1.645-12.105,3.445c-1.221,0.73-1.042,2.078,0.353,2.613c3.442,1.32,7.965,1.952,12.829,1.591
					c4.863-0.361,9.166-1.649,12.195-3.45c0.027-0.016,0.052-0.035,0.076-0.052c-4.82,5.762-9.856,11.282-14.844,16.397
					c0.217-0.625-0.103-1.3-0.954-1.659c-3.308-1.399-7.785-2.136-12.677-1.888c-4.892,0.248-9.291,1.436-12.535,3.165
					c-1.311,0.702-1.302,2.053,0.024,2.62c3.271,1.398,7.706,2.134,12.609,1.886c4.874-0.246,9.308-1.42,12.563-3.132
					c-5.424,5.52-10.764,10.546-15.611,14.893c-0.012-0.445-0.3-0.867-0.879-1.131c-3.147-1.43-7.538-2.215-12.449-2.025
					c-4.914,0.19-9.441,1.322-12.873,3.005c-1.389,0.682-1.529,2.026-0.269,2.604c3.111,1.426,7.456,2.207,12.379,2.017
					c4.43-0.171,8.587-1.1,11.888-2.51c-7.029,6.202-12.793,10.816-15.942,13.297C121.759,100.219,121.53,99.719,120.906,99.416z"/>
			</g>
			<g>
				<path class="st26" d="M69.052,154.013c1.175-3.885,1.277-7.607,0.582-10.508c-0.283-1.176-1.333-1.441-2.024-0.513
					c-1.711,2.288-3.224,5.631-4.34,9.519c-1.111,3.887-1.636,7.594-1.5,10.474c0.054,1.168,1.041,1.43,1.925,0.509
					C65.865,161.223,67.881,157.898,69.052,154.013z"/>
				<path class="st26" d="M104.649,122.849c0.016,3.797,0.563,7.47,1.541,10.35c0.394,1.168,1.46,1.431,2.073,0.509
					c1.509-2.273,2.556-5.582,2.603-9.39c0.051-3.809-0.924-7.404-2.458-10.181c-0.622-1.126-1.75-1.377-2.173-0.491
					C105.184,115.835,104.642,119.051,104.649,122.849z"/>
				<path class="st26" d="M19.934,166.569c-1.874-1.884-4.878-3.56-8.534-4.59c-3.654-1.031-7.275-1.226-10.189-0.707
					c-1.182,0.21-1.592,1.253-0.809,2.02c1.938,1.892,4.881,3.56,8.475,4.583c3.337,0.949,6.666,1.182,9.493,0.801
					c-0.313,0.146-0.491,0.229-0.522,0.243c-0.203,0.094-0.324,0.321-0.269,0.507c0.056,0.184,0.263,0.26,0.47,0.166
					c0.007-0.003,0.027-0.013,0.053-0.025c-2.106,2.22-4.248,5.26-6.17,8.706c-2.094,3.762-3.557,7.302-4.156,10.031
					c-0.244,1.106,0.676,1.353,1.795,0.482c2.75-2.149,5.61-5.313,7.762-9.062c2.158-3.748,3.198-7.385,3.239-10.242
					c0.009-0.433-0.129-0.741-0.347-0.909c2.76-1.303,7.988-3.804,14.647-7.227c-1.803,2.205-3.563,5.133-5.095,8.441
					c-1.765,3.825-2.917,7.441-3.27,10.236c-0.144,1.133,0.798,1.386,1.838,0.494c2.557-2.202,5.136-5.438,6.96-9.253
					c1.832-3.814,2.557-7.5,2.354-10.388c-0.024-0.36-0.14-0.633-0.308-0.813c4.302-2.242,9.092-4.82,14.117-7.66
					c-1.693,2.245-3.278,5.299-4.579,8.782c-1.439,3.867-2.276,7.538-2.385,10.383c-0.045,1.154,0.92,1.412,1.882,0.503
					c2.366-2.243,4.659-5.532,6.158-9.393c1.501-3.86,1.917-7.574,1.468-10.476c-0.069-0.458-0.271-0.776-0.535-0.941
					c9.136-5.223,18.915-11.264,28.002-17.632c-1.394,2.257-2.513,5.445-3.226,9.142c-0.745,3.885-0.918,7.607-0.508,10.508
					c0.163,1.176,1.178,1.441,1.973,0.513c1.957-2.288,3.654-5.631,4.458-9.519c0.808-3.887,0.558-7.594-0.409-10.475
					c-0.207-0.623-0.616-0.985-1.037-1.051c4.071-2.882,7.991-5.824,11.664-8.778c-1.127,2.214-1.902,5.294-2.248,8.868
					c-0.369,3.856-0.183,7.567,0.508,10.468c0.281,1.176,1.316,1.441,2.023,0.513c1.735-2.289,3.109-5.627,3.538-9.489
					c0.432-3.863-0.177-7.527-1.425-10.367c-0.263-0.602-0.695-0.957-1.115-1.032c4.567-3.737,8.717-7.484,12.273-11.146
					c0.121-0.122,0.062-0.351-0.124-0.51c-0.006-0.005-0.012-0.01-0.019-0.015c-0.184-0.146-0.42-0.171-0.533-0.053
					c-0.322,0.334-0.652,0.668-0.983,1.003c-0.167-0.265-0.455-0.532-0.867-0.757c-2.98-1.635-6.909-2.97-11.061-3.653
					c-4.154-0.682-7.755-0.588-10.254,0.116c-1.013,0.285-0.785,1.29,0.432,1.95c3.007,1.627,6.871,2.981,10.979,3.676
					c3.625,0.613,6.856,0.61,9.318,0.109c-3.083,3.001-6.53,6.046-10.254,9.082c0.004-0.395-0.293-0.851-0.887-1.213
					c-2.792-1.702-6.573-3.113-10.654-3.858c-4.086-0.744-7.708-0.689-10.299,0.004c-1.052,0.281-0.942,1.311,0.203,1.999
					c2.825,1.696,6.535,3.12,10.574,3.874c3.871,0.724,7.367,0.7,9.972,0.076c-3.638,2.925-7.52,5.838-11.543,8.692
					c0.154-0.432-0.082-0.982-0.719-1.41c-2.616-1.755-6.25-3.229-10.262-4.031c-4.014-0.802-7.651-0.786-10.322-0.113
					c-1.083,0.273-1.08,1.319-0.007,2.029c2.652,1.75,6.22,3.233,10.185,4.042c3.904,0.797,7.489,0.792,10.191,0.143
					c-4.11,2.89-8.362,5.715-12.632,8.427c0.322-0.447,0.174-1.087-0.493-1.578c-2.442-1.797-5.935-3.324-9.873-4.179
					c-3.94-0.855-7.583-0.881-10.323-0.233c-1.11,0.263-1.211,1.317-0.205,2.044c2.487,1.794,5.912,3.326,9.799,4.185
					c3.883,0.859,7.526,0.886,10.309,0.234c0.027-0.006,0.047-0.014,0.072-0.021c-5.091,3.216-10.204,6.268-15.115,9.078
					c0.301-0.435,0.202-1.033-0.373-1.509c-2.234-1.854-5.552-3.466-9.395-4.415c-3.844-0.948-7.49-1.059-10.304-0.473
					c-1.141,0.238-1.358,1.292-0.433,2.044c2.285,1.854,5.543,3.466,9.328,4.415c3.761,0.943,7.374,1.057,10.221,0.483
					c-5.325,3.03-10.396,5.768-14.912,8.126c0.085-0.36-0.04-0.764-0.418-1.109c-2.047-1.874-5.205-3.521-8.953-4.514
					c-3.747-0.992-7.385-1.146-10.254-0.592c-1.164,0.224-1.483,1.275-0.631,2.036c2.107,1.877,5.199,3.521,8.89,4.51
					c3.318,0.889,6.576,1.1,9.319,0.732c-6.506,3.359-11.651,5.834-14.448,7.162C20.388,167.428,20.326,166.963,19.934,166.569z"/>
			</g>
		</g>
		<g class="st29">
			<g>
				<path class="st26" d="M191.166,97c-1.312-3.659-3.334-6.716-5.457-8.73c-0.861-0.816-1.808-0.448-1.844,0.715
					c-0.088,2.868,0.509,6.452,1.766,10.11c1.261,3.658,2.961,6.713,4.813,8.723c0.747,0.815,1.754,0.447,1.936-0.714
					C192.829,104.241,192.482,100.659,191.166,97z"/>
				<path class="st26" d="M197.978,50.635c2.48,3.521,5.202,6.496,7.728,8.463c1.021,0.798,1.901,0.437,1.697-0.698
					c-0.51-2.797-2.053-6.27-4.59-9.778c-2.532-3.509-5.576-6.404-8.371-8.304c-1.136-0.77-1.958-0.423-1.605,0.675
					C193.704,43.702,195.5,47.113,197.978,50.635z"/>
				<path class="st26" d="M154.896,133.676c-2.735-0.274-6.369,0.191-10.32,1.462c-3.954,1.27-7.503,3.109-10.124,5.063
					c-1.06,0.793-1.029,1.751,0.072,1.861c2.715,0.27,6.388-0.187,10.393-1.446c3.713-1.168,7.066-2.829,9.569-4.636
					c-0.223,0.271-0.353,0.425-0.374,0.451c-0.147,0.176-0.147,0.395,0.005,0.491c0.148,0.094,0.39,0.031,0.537-0.145
					c0.008-0.007,0.019-0.024,0.039-0.046c-0.859,2.654-1.324,5.826-1.253,9.027c0.081,3.494,0.794,6.376,1.995,8.267
					c0.485,0.766,1.607,0.421,2.167-0.672c1.375-2.696,2.184-6.092,2.049-9.6c-0.131-3.507-1.168-6.473-2.638-8.433
					c-0.223-0.297-0.514-0.433-0.809-0.427c1.943-2.403,5.593-6.997,9.82-13.195c-0.481,2.609-0.559,5.669-0.153,8.766
					c0.474,3.581,1.514,6.548,2.934,8.497c0.571,0.79,1.657,0.434,2.09-0.692c1.068-2.777,1.489-6.267,0.961-9.858
					c-0.525-3.59-1.889-6.614-3.578-8.609c-0.21-0.248-0.454-0.385-0.697-0.423c2.676-4.049,5.509-8.675,8.243-13.717
					c-0.25,2.703,0,5.927,0.777,9.203c0.866,3.636,2.238,6.66,3.874,8.649c0.661,0.806,1.705,0.443,2.013-0.706
					c0.757-2.833,0.795-6.385-0.126-10.026c-0.918-3.641-2.613-6.695-4.517-8.708c-0.302-0.318-0.634-0.454-0.94-0.436
					c4.867-9.246,9.25-19.767,12.106-30.457c0.289,2.769,1.266,6.16,2.848,9.63c1.666,3.647,3.705,6.704,5.782,8.719
					c0.839,0.817,1.803,0.448,1.857-0.715c0.131-2.869-0.615-6.449-2.337-10.092c-1.717-3.644-4.08-6.676-6.425-8.671
					c-0.506-0.431-1.003-0.526-1.338-0.349c1.232-4.823,2.16-9.667,2.742-14.43c0.624,2.678,1.963,5.931,3.882,9.269
					c2.075,3.601,4.456,6.632,6.757,8.632c0.93,0.811,1.854,0.445,1.777-0.71c-0.189-2.847-1.338-6.39-3.466-9.983
					c-2.125-3.593-4.831-6.572-7.401-8.529c-0.547-0.415-1.042-0.512-1.359-0.352c0.636-5.997,0.711-11.844,0.228-17.357
					c-0.016-0.184-0.206-0.381-0.424-0.441c-0.007-0.002-0.013-0.004-0.021-0.005c-0.207-0.048-0.358,0.051-0.343,0.229
					c0.045,0.503,0.085,1.009,0.12,1.517c-0.278-0.175-0.627-0.286-1.019-0.293c-2.842-0.049-6.003,0.663-8.886,2.169
					c-2.885,1.506-4.972,3.531-6.075,5.617c-0.445,0.846,0.293,1.772,1.442,1.792c2.836,0.051,6.063-0.68,9.008-2.203
					c2.598-1.344,4.542-3.082,5.655-4.887c0.2,4.596,0.027,9.388-0.513,14.274c-0.24-0.372-0.712-0.64-1.317-0.657
					c-2.843-0.082-6.109,0.614-9.201,2.125c-3.093,1.511-5.451,3.56-6.832,5.678c-0.559,0.858,0.062,1.811,1.211,1.845
					c2.833,0.084,6.162-0.624,9.316-2.146c3.026-1.461,5.337-3.41,6.655-5.421c-0.589,4.726-1.516,9.53-2.742,14.311
					c-0.136-0.469-0.617-0.829-1.308-0.858c-2.837-0.116-6.195,0.554-9.476,2.051c-3.281,1.497-5.894,3.546-7.527,5.672
					c-0.661,0.862-0.158,1.832,0.99,1.88c2.828,0.117,6.243-0.559,9.584-2.063c3.29-1.481,5.892-3.495,7.448-5.577
					c-1.291,4.854-2.886,9.676-4.705,14.359c0.008-0.556-0.452-1.014-1.223-1.055c-2.826-0.15-6.265,0.487-9.72,1.956
					c-3.457,1.469-6.305,3.499-8.184,5.614c-0.76,0.857-0.365,1.836,0.775,1.897c2.813,0.15,6.305-0.488,9.82-1.959
					c3.514-1.471,6.387-3.502,8.181-5.614c0.016-0.019,0.03-0.039,0.044-0.058c-2.195,5.563-4.706,10.919-7.331,15.897
					c0.024-0.512-0.366-0.929-1.088-0.984c-2.801-0.216-6.324,0.342-9.972,1.729c-3.651,1.387-6.765,3.346-8.921,5.409
					c-0.871,0.837-0.609,1.82,0.52,1.907c2.787,0.215,6.354-0.34,10.059-1.723c3.682-1.375,6.808-3.318,8.889-5.372
					c-2.88,5.376-5.883,10.289-8.699,14.547c-0.111-0.312-0.428-0.541-0.938-0.586c-2.772-0.246-6.354,0.267-10.163,1.6
					c-3.808,1.333-7.15,3.239-9.548,5.255c-0.97,0.818-0.825,1.792,0.291,1.891c2.753,0.244,6.379-0.263,10.243-1.589
					c3.476-1.193,6.552-2.853,8.827-4.65c-4.127,6.08-7.711,10.623-9.679,13.07C155.766,134.02,155.467,133.734,154.896,133.676z"/>
			</g>
			<g>
				<path class="st26" d="M131.661,186.337c-0.151-3.123-1.029-5.917-2.248-7.933c-0.496-0.817-1.319-0.76-1.599,0.111
					c-0.691,2.149-0.999,5.025-0.86,8.148c0.145,3.123,0.711,5.912,1.609,7.923c0.362,0.815,1.198,0.758,1.616-0.111
					C131.209,192.331,131.817,189.46,131.661,186.337z"/>
				<path class="st26" d="M148.278,153.89c1.15,3.014,2.621,5.744,4.17,7.724c0.626,0.803,1.44,0.747,1.58-0.109
					c0.334-2.11,0.015-4.918-1.149-7.929c-1.159-3.013-2.938-5.67-4.809-7.575c-0.76-0.772-1.564-0.718-1.563,0.105
					C146.512,148.137,147.129,150.875,148.278,153.89z"/>
				<path class="st26" d="M96.721,207.305c-1.901-0.854-4.616-1.3-7.71-1.139c-3.096,0.161-6,0.9-8.245,1.967
					c-0.91,0.433-1.07,1.261-0.309,1.605c1.877,0.85,4.566,1.291,7.669,1.131c2.88-0.148,5.618-0.79,7.801-1.732
					c-0.218,0.176-0.345,0.276-0.366,0.293c-0.142,0.114-0.189,0.299-0.105,0.413c0.086,0.113,0.27,0.114,0.414,0.001
					c0.006-0.004,0.018-0.015,0.038-0.03c-1.203,2.031-2.249,4.608-2.985,7.355c-0.799,2.999-1.071,5.643-0.783,7.537
					c0.115,0.768,0.969,0.714,1.65-0.105c1.68-2.02,3.152-4.745,3.938-7.746c0.791-3.001,0.755-5.721,0.145-7.694
					c-0.092-0.299-0.269-0.479-0.481-0.542c1.92-1.563,5.539-4.556,9.969-8.61c-0.913,2.005-1.636,4.491-2.056,7.14
					c-0.484,3.065-0.476,5.778,0.014,7.727c0.198,0.79,1.043,0.735,1.639-0.108c1.464-2.078,2.647-4.874,3.119-7.94
					c0.477-3.066,0.16-5.832-0.653-7.835c-0.102-0.25-0.251-0.416-0.422-0.503c2.838-2.65,5.928-5.684,9.066-9.002
					c-0.761,2.062-1.263,4.668-1.42,7.466c-0.169,3.106,0.118,5.868,0.812,7.856c0.28,0.806,1.121,0.749,1.627-0.11
					c1.248-2.119,2.142-4.964,2.301-8.071c0.164-3.106-0.435-5.897-1.45-7.915c-0.16-0.319-0.384-0.503-0.621-0.559
					c5.66-6.089,11.349-13.052,16.086-20.21c-0.397,2.092-0.38,4.82,0.071,7.783c0.476,3.115,1.343,5.909,2.455,7.927
					c0.449,0.818,1.279,0.761,1.604-0.112c0.801-2.152,1.1-5.028,0.613-8.141c-0.482-3.114-1.66-5.887-3.093-7.885
					c-0.308-0.432-0.687-0.615-1.001-0.563c2.101-3.233,4.008-6.497,5.662-9.728c-0.141,2.032,0.178,4.654,0.929,7.507
					c0.813,3.078,1.981,5.853,3.311,7.861c0.538,0.815,1.36,0.757,1.593-0.111c0.57-2.141,0.558-4.995-0.267-8.072
					c-0.82-3.077-2.298-5.805-3.95-7.766c-0.35-0.416-0.74-0.596-1.044-0.555c2.019-4.075,3.621-8.085,4.747-11.912
					c0.039-0.128-0.07-0.302-0.242-0.39c-0.004-0.003-0.01-0.006-0.016-0.008c-0.164-0.077-0.325-0.044-0.36,0.079
					c-0.101,0.349-0.208,0.7-0.316,1.051c-0.19-0.179-0.463-0.331-0.797-0.421c-2.435-0.655-5.362-0.865-8.232-0.48
					c-2.873,0.386-5.161,1.298-6.594,2.477c-0.579,0.478-0.163,1.275,0.813,1.544c2.406,0.663,5.319,0.878,8.211,0.486
					c2.551-0.345,4.665-1.106,6.107-2.088c-1.075,3.172-2.456,6.448-4.111,9.765c-0.109-0.316-0.437-0.611-0.937-0.76
					c-2.353-0.7-5.263-0.948-8.193-0.584c-2.932,0.364-5.348,1.274-6.935,2.465c-0.644,0.483-0.327,1.303,0.616,1.589
					c2.328,0.705,5.219,0.957,8.168,0.589c2.83-0.352,5.203-1.213,6.792-2.334c-1.643,3.204-3.535,6.439-5.614,9.642
					c-0.003-0.373-0.311-0.746-0.865-0.926c-2.275-0.737-5.161-1.023-8.138-0.687c-2.98,0.336-5.507,1.233-7.238,2.422
					c-0.701,0.482-0.478,1.317,0.432,1.617c2.251,0.741,5.114,1.029,8.111,0.691c2.952-0.333,5.488-1.214,7.214-2.377
					c-2.142,3.25-4.473,6.461-6.914,9.569c0.127-0.418-0.136-0.869-0.735-1.079c-2.192-0.77-5.048-1.091-8.068-0.787
					c-3.02,0.304-5.649,1.179-7.511,2.357c-0.752,0.478-0.626,1.32,0.254,1.632c2.171,0.771,5,1.094,8.037,0.788
					c3.035-0.305,5.705-1.182,7.567-2.359c0.018-0.011,0.031-0.023,0.047-0.034c-2.921,3.69-5.991,7.226-9.038,10.504
					c0.127-0.394-0.083-0.811-0.622-1.022c-2.092-0.821-4.905-1.209-7.961-0.974c-3.058,0.235-5.796,1.049-7.807,2.183
					c-0.813,0.46-0.791,1.304,0.047,1.637c2.066,0.82,4.855,1.207,7.925,0.973c3.049-0.233,5.813-1.038,7.825-2.161
					c-3.316,3.538-6.591,6.76-9.571,9.548c-0.015-0.277-0.202-0.536-0.568-0.691c-1.995-0.84-4.76-1.259-7.841-1.061
					c-3.082,0.198-5.908,0.977-8.042,2.081c-0.864,0.448-0.933,1.286-0.137,1.626c1.97,0.838,4.712,1.254,7.802,1.057
					c2.782-0.178,5.38-0.824,7.432-1.755c-4.323,3.977-7.882,6.938-9.827,8.53C97.269,207.791,97.117,207.484,96.721,207.305z"/>
			</g>
		</g>
	</g>
</g>
<g id="點" class="st0">
</g>
<g id="雜訊" class="st0">
</g>
<g id="path_拷貝" class="st0">
</g>
<g id="path" class="st0">
</g>
</svg>
