<?xml version="1.0" encoding="utf-8"?>
<!-- Generator: Adobe Illustrator 25.0.1, SVG Export Plug-In . SVG Version: 6.00 Build 0)  -->
<svg version="1.1" xmlns="http://www.w3.org/2000/svg" xmlns:xlink="http://www.w3.org/1999/xlink" x="0px" y="0px"
	 width="290.296px" height="197.981px" viewBox="0 0 290.296 197.981" style="enable-background:new 0 0 290.296 197.981;"
	 xml:space="preserve">
<style type="text/css">
	.st0{display:none;}
	.st1{display:inline;}
	.st2{fill:#52B380;}
	.st3{fill:none;stroke:#AAF1D9;stroke-width:2;stroke-linecap:round;stroke-miterlimit:10;}
	.st4{fill:none;stroke:#002129;stroke-width:3;stroke-linecap:round;stroke-miterlimit:10;}
	.st5{display:inline;fill:#79E0A8;}
	.st6{fill:#79E0A8;}
	.st7{display:inline;fill:#002129;}
	.st8{display:inline;opacity:0.24;}
	.st9{display:inline;opacity:0.11;}
	.st10{display:inline;opacity:0.62;}
	.st11{fill:#254856;}
	.st12{fill:#436F70;}
	.st13{display:inline;opacity:0.46;}
	.st14{fill:#274854;}
	.st15{fill:#638199;}
	.st16{fill:#1F3B44;}
	.st17{display:inline;opacity:0.3;}
	.st18{display:inline;opacity:0.2;}
	.st19{fill:#002129;}
	.st20{display:inline;opacity:0.1;fill:#00080D;}
	.st21{opacity:0.34;}
	.st22{fill:#83BE7C;}
	.st23{fill:#A2E79D;}
	.st24{fill:#C7E7C3;}
	.st25{opacity:0.65;}
	.st26{fill:#AAF1D9;}
	.st27{fill:#439166;}
	.st28{display:inline;opacity:0.65;}
	.st29{opacity:0.56;}
	.st30{opacity:0.3;}
	.st31{opacity:0.0233;}
	.st32{fill:#FFFFFF;}
	.st33{opacity:0.017;}
	.st34{opacity:0.0578;}
	.st35{opacity:0.1868;}
	.st36{opacity:0.2141;}
	.st37{opacity:0.2444;}
	.st38{opacity:0.2934;}
	.st39{opacity:0.8966;}
	.st40{opacity:0.8157;}
	.st41{opacity:0.1958;}
	.st42{opacity:0.055;}
	.st43{opacity:0.1845;}
	.st44{opacity:0.2628;}
	.st45{opacity:0.1595;}
	.st46{opacity:0.2794;}
	.st47{opacity:0.1885;}
	.st48{opacity:0.4713;}
	.st49{opacity:0.3983;}
	.st50{opacity:0.1625;}
	.st51{opacity:0.2883;}
	.st52{opacity:0.434;}
	.st53{opacity:0.1645;}
	.st54{opacity:0.1242;}
	.st55{opacity:0.1068;}
	.st56{opacity:0.0652;}
	.st57{opacity:0.2094;}
	.st58{opacity:0.1565;}
	.st59{opacity:0.3417;}
	.st60{opacity:0.2449;}
	.st61{opacity:0.2293;}
	.st62{opacity:0.1949;}
	.st63{opacity:0.632;}
	.st64{opacity:0.121;}
	.st65{opacity:0.0677;}
	.st66{opacity:0.0332;}
	.st67{opacity:0.2805;}
	.st68{opacity:0.5054;}
	.st69{opacity:0.2391;}
	.st70{opacity:0.4063;}
	.st71{opacity:0.1637;}
	.st72{opacity:0.044;}
	.st73{opacity:0.0739;}
	.st74{opacity:0.052;}
	.st75{opacity:0.0429;}
	.st76{opacity:0.0314;}
	.st77{opacity:0.3285;}
	.st78{opacity:0.5065;}
	.st79{opacity:0.2088;}
	.st80{opacity:0.3257;}
	.st81{opacity:0.316;}
	.st82{opacity:0.7164;}
	.st83{opacity:0.122;}
	.st84{opacity:0.1284;}
	.st85{display:inline;opacity:0.5;}
	.st86{display:inline;fill:none;stroke:#000000;stroke-miterlimit:10;}
</style>
<g id="零件" class="st0">
</g>
<g id="底色" class="st0">
</g>
<g id="底葉" class="st0">
</g>
<g id="路" class="st0">
</g>
<g id="青蛙" class="st0">
</g>
<g id="上葉" class="st0">
</g>
<g id="圖層_11">
	<g class="st25">
		<path class="st27" d="M81.177,86.603c10.76,9.531,9.084,21.894,24.736,30.009c15.642,8.113,31.047,5.421,37.938,9.982
			c7.043,4.575,8.689,24.566,20.448,34.84c11.93,10.291,27.964-3.287,34.233,1.202c6.325,4.498,8.379,16.015,16.893,25.5
			c8.491,9.475,30.661,4.727,40.39,7.159c9.676,2.419,27.412,5.384,33.176-1.997c5.841-7.367-9.436-22.204-16.097-27.519
			c-6.297-5.255-8.665-26.266-15.196-34.337c-6.322-8.043-23.629-0.029-33.028-5.216c-9.252-5.181-13.859-23.441-22.128-31.011
			c-8.133-7.565-25.187-2.511-34.479-8.227c-9.285-5.716-12.926-17.667-21.098-27.013c-8.197-9.341-33.795-3.051-45.153-9.029
			C90.935,44.891,83.285,13.679,67.644,3.083C52.621-7.638,14.428,13.039,14.233,13.086c-0.01,0.002-12.33,2.411-14.204,7.8
			c-0.922,5.232,19.911,46.747,32.803,55.674C46.666,85.378,70.376,77.077,81.177,86.603z"/>
		<path class="st26" d="M254.442,169.935c0.368,0.274,0.365,0.844-0.014,1.287c-0.385,0.451-1.01,0.599-1.397,0.331
			c0.646-0.314-80.88-54.563-104.952-69.095C137.121,95.313,105.24,74.808,73.622,56.3C42.379,37.747,11.398,21.191,10.876,20.892
			c-0.523-0.282-0.815-0.867-0.653-1.305c0.161-0.437,0.713-0.565,1.235-0.288c0.003,0.001,0.006,0.002,0.007,0.004
			c0.524,0.299,31.598,16.832,62.944,35.373c31.72,18.494,63.712,38.995,74.708,46.139c24.13,14.511,105.948,68.785,105.307,69.106
			C254.429,169.926,254.434,169.931,254.442,169.935z"/>
		<path class="st26" d="M222.758,152.529c0.005,0.005,0.013,0.009,0.018,0.014c0.385,0.294,0.391,0.89,0.014,1.33
			c-0.045,0.054-4.624,5.485-4.547,10.968c0.05,3.166,1.667,5.787,4.847,7.793c0.402,0.253,0.417,0.827,0.042,1.286
			c-0.375,0.459-1.002,0.627-1.4,0.376c-3.596-2.276-5.407-5.304-5.455-9.015c-0.071-6.305,4.91-12.225,5.123-12.474
			C221.771,152.374,222.373,152.253,222.758,152.529z"/>
		<path class="st26" d="M173.827,119.84c0.008,0.005,0.013,0.009,0.02,0.014c0.418,0.297,0.492,0.9,0.166,1.345
			c-0.039,0.055-3.998,5.547-3.292,11.112c0.413,3.214,2.331,5.877,5.744,7.919c0.432,0.26,0.513,0.842,0.191,1.309
			c-0.323,0.467-0.931,0.638-1.356,0.383c-3.859-2.315-6.02-5.397-6.494-9.164c-0.795-6.401,3.513-12.386,3.695-12.637
			C172.822,119.682,173.41,119.56,173.827,119.84z"/>
		<path class="st26" d="M85.895,64.392c0.007,0.004,0.014,0.009,0.022,0.014c0.475,0.296,0.664,0.897,0.422,1.34
			c-0.028,0.054-2.942,5.53-1.173,11.113c1.027,3.223,3.453,5.901,7.258,7.957c0.485,0.264,0.676,0.848,0.441,1.318
			c-0.232,0.471-0.809,0.643-1.283,0.386c-4.303-2.334-7.054-5.434-8.246-9.213c-2.017-6.422,1.151-12.385,1.286-12.636
			C84.859,64.235,85.424,64.113,85.895,64.392z"/>
		<path class="st26" d="M155.678,82.53c0.08,0.049,0.13,0.082,0.149,0.094c0.457,0.299,0.606,0.9,0.335,1.346
			c-0.27,0.447-0.876,0.553-1.314,0.269c-0.055-0.033-5.674-3.638-11.108-2.263c-3.137,0.793-5.636,3.101-7.53,6.86
			c-0.237,0.471-0.815,0.644-1.286,0.386c-0.474-0.272-0.664-0.847-0.427-1.319c2.135-4.263,5.012-6.891,8.685-7.817
			C148.961,78.63,154.676,81.908,155.678,82.53z"/>
		<path class="st26" d="M75.462,22.935c0.167,0.09,0.274,0.148,0.314,0.17c0.518,0.291,0.791,0.879,0.613,1.314
			c-0.18,0.435-0.73,0.557-1.259,0.261c-0.092-0.08-12.605-6.951-22.742-4.318c-5.885,1.528-9.836,5.937-12.143,13.179
			c-0.148,0.462-0.691,0.631-1.213,0.379c-0.529-0.255-0.825-0.831-0.679-1.294c2.438-7.732,6.685-12.448,13.073-14.101
			C61.513,15.912,73.375,21.806,75.462,22.935z"/>
		<path class="st26" d="M218.109,121.64c0.073,0.049,0.118,0.082,0.136,0.094c0.416,0.298,0.485,0.899,0.155,1.344
			c-0.331,0.446-0.926,0.567-1.35,0.269c-0.046-0.032-5.187-3.633-10.804-2.26c-3.243,0.792-6.052,3.098-8.449,6.846
			c-0.302,0.47-0.9,0.642-1.338,0.385c-0.436-0.272-0.55-0.845-0.251-1.314c2.705-4.25,5.933-6.879,9.733-7.804
			C211.917,117.742,217.191,121.019,218.109,121.64z"/>
	</g>
</g>
<g id="點" class="st0">
</g>
<g id="雜訊" class="st0">
</g>
<g id="path_拷貝" class="st0">
</g>
<g id="path" class="st0">
</g>
</svg>
