<?xml version="1.0" encoding="utf-8"?>
<!-- Generator: Adobe Illustrator 25.0.1, SVG Export Plug-In . SVG Version: 6.00 Build 0)  -->
<svg version="1.1" xmlns="http://www.w3.org/2000/svg" xmlns:xlink="http://www.w3.org/1999/xlink" x="0px" y="0px"
	 width="253.153px" height="292.861px" viewBox="0 0 253.153 292.861" style="enable-background:new 0 0 253.153 292.861;"
	 xml:space="preserve">
<style type="text/css">
	.st0{display:none;}
	.st1{display:inline;}
	.st2{fill:#52B380;}
	.st3{fill:none;stroke:#AAF1D9;stroke-width:2;stroke-linecap:round;stroke-miterlimit:10;}
	.st4{fill:none;stroke:#002129;stroke-width:3;stroke-linecap:round;stroke-miterlimit:10;}
	.st5{display:inline;fill:#79E0A8;}
	.st6{fill:#79E0A8;}
	.st7{display:inline;fill:#002129;}
	.st8{display:inline;opacity:0.24;}
	.st9{display:inline;opacity:0.11;}
	.st10{display:inline;opacity:0.62;}
	.st11{fill:#254856;}
	.st12{fill:#436F70;}
	.st13{display:inline;opacity:0.46;}
	.st14{fill:#274854;}
	.st15{fill:#638199;}
	.st16{fill:#1F3B44;}
	.st17{display:inline;opacity:0.3;}
	.st18{display:inline;opacity:0.2;}
	.st19{fill:#002129;}
	.st20{display:inline;opacity:0.1;fill:#00080D;}
	.st21{opacity:0.34;}
	.st22{fill:#83BE7C;}
	.st23{fill:#A2E79D;}
	.st24{fill:#C7E7C3;}
	.st25{opacity:0.65;}
	.st26{fill:#AAF1D9;}
	.st27{fill:#439166;}
	.st28{display:inline;opacity:0.65;}
	.st29{opacity:0.56;}
	.st30{opacity:0.3;}
	.st31{opacity:0.0233;}
	.st32{fill:#FFFFFF;}
	.st33{opacity:0.017;}
	.st34{opacity:0.0578;}
	.st35{opacity:0.1868;}
	.st36{opacity:0.2141;}
	.st37{opacity:0.2444;}
	.st38{opacity:0.2934;}
	.st39{opacity:0.8966;}
	.st40{opacity:0.8157;}
	.st41{opacity:0.1958;}
	.st42{opacity:0.055;}
	.st43{opacity:0.1845;}
	.st44{opacity:0.2628;}
	.st45{opacity:0.1595;}
	.st46{opacity:0.2794;}
	.st47{opacity:0.1885;}
	.st48{opacity:0.4713;}
	.st49{opacity:0.3983;}
	.st50{opacity:0.1625;}
	.st51{opacity:0.2883;}
	.st52{opacity:0.434;}
	.st53{opacity:0.1645;}
	.st54{opacity:0.1242;}
	.st55{opacity:0.1068;}
	.st56{opacity:0.0652;}
	.st57{opacity:0.2094;}
	.st58{opacity:0.1565;}
	.st59{opacity:0.3417;}
	.st60{opacity:0.2449;}
	.st61{opacity:0.2293;}
	.st62{opacity:0.1949;}
	.st63{opacity:0.632;}
	.st64{opacity:0.121;}
	.st65{opacity:0.0677;}
	.st66{opacity:0.0332;}
	.st67{opacity:0.2805;}
	.st68{opacity:0.5054;}
	.st69{opacity:0.2391;}
	.st70{opacity:0.4063;}
	.st71{opacity:0.1637;}
	.st72{opacity:0.044;}
	.st73{opacity:0.0739;}
	.st74{opacity:0.052;}
	.st75{opacity:0.0429;}
	.st76{opacity:0.0314;}
	.st77{opacity:0.3285;}
	.st78{opacity:0.5065;}
	.st79{opacity:0.2088;}
	.st80{opacity:0.3257;}
	.st81{opacity:0.316;}
	.st82{opacity:0.7164;}
	.st83{opacity:0.122;}
	.st84{opacity:0.1284;}
	.st85{display:inline;opacity:0.5;}
	.st86{display:inline;fill:none;stroke:#000000;stroke-miterlimit:10;}
</style>
<g id="零件" class="st0">
</g>
<g id="底色" class="st0">
</g>
<g id="底葉" class="st0">
</g>
<g id="路" class="st0">
</g>
<g id="青蛙" class="st0">
</g>
<g id="上葉" class="st0">
</g>
<g id="圖層_11">
	<g class="st30">
		<path class="st12" d="M113.283,202.402c12.396,2.465,24.016,0.985,32.734-2.638c3.534-1.485,3.952-4.484,0.813-5.775
			c-7.74-3.237-18.747-5.732-31.155-7.993c-12.413-2.217-23.822-3.836-32.286-3.896c-3.433-0.039-3.832,2.742-0.79,5.432
			C90.111,194.112,100.885,199.98,113.283,202.402z"/>
		<path class="st12" d="M219.469,266.911c-10.17,6.726-20.525,13.441-28.602,19.704c-3.284,2.525-3.68,5.611-0.754,6.021
			c7.189,0.96,17.1-1.071,27.382-7.592c10.306-6.477,18.951-16.291,24.99-26.239c2.441-4.049,2.716-7.352,0.564-6.365
			C237.708,254.823,229.662,260.229,219.469,266.911z"/>
		<path class="st12" d="M57.911,59.592c4.586-4.367,8.295-12.262,9.929-22.344c1.639-10.095,0.883-20.458-1.643-29.221
			c-1.028-3.547-4.131-5.371-5.999-3.578c-4.62,4.453-8.151,11.894-9.699,21.759c-1.433,9.143-0.932,18.843,1.071,27.437
			c-0.506-1.023-0.791-1.608-0.84-1.708c-0.326-0.667-0.981-1.181-1.465-1.152c-0.479,0.032-0.61,0.597-0.288,1.269
			c0.012,0.025,0.045,0.091,0.085,0.176c-6.707-7.805-15.387-16.683-24.22-26.146C15.176,15.799,7.257,6.663,1.816,0.896
			c-2.197-2.354-2.442,0.155-0.508,4.9c4.805,11.651,12.148,24.648,21.686,35.139c9.509,10.534,19.379,16.572,27.138,18.654
			c1.176,0.319,1.971,0.124,2.354-0.409c4.506,8.975,13.251,25.933,25.755,46.139c-7.132-5.859-16.218-12.183-25.788-18.786
			c-11.084-7.597-20.635-14.226-27.44-18.091c-2.753-1.582-3.068,1.017-0.635,5.077c6.022,9.961,14.953,20.582,25.948,28.383
			c10.972,7.844,21.898,11.376,30.329,11.557c1.051,0.025,1.815-0.234,2.287-0.673c8.235,12.865,17.853,26.691,28.521,40.336
			c-7.55-4.424-17.49-8.829-28.289-13.285c-11.999-4.907-22.713-9.031-30.526-10.994c-3.164-0.811-3.53,1.88-0.729,5.254
			c6.926,8.271,17,16.515,28.947,21.627c11.936,5.155,23.44,6.181,32.195,4.459c1.384-0.268,2.285-0.89,2.693-1.65
			c19.594,24.44,42.5,47.627,64.946,64.411c-7.274-1.186-17.413-1.076-29.11-0.432c-12.286,0.717-23.925,1.834-32.693,3.848
			c-3.559,0.801-3.979,3.684-0.818,5.625c7.789,4.736,18.823,8.013,31.138,7.5c12.322-0.469,23.537-4.684,31.809-10.383
			c1.79-1.229,2.722-2.701,2.765-3.873c10.074,7.33,19.984,13.364,29.333,17.832c-6.467,0.755-15.492,3.344-26.205,6.741
			c-11.545,3.706-22.839,7.608-31.485,11.736c-3.511,1.658-3.931,4.642-0.807,5.822c7.687,2.857,18.439,3.493,30.057-0.008
			c11.631-3.458,21.863-10.458,29.244-18.271c1.569-1.654,2.394-3.333,2.461-4.513c11.65,5.193,22.311,7.834,31.334,7.708
			c0.301-0.003,0.789-0.68,1.095-1.512c0.01-0.027,0.019-0.053,0.029-0.081c0.275-0.794,0.269-1.418-0.015-1.408
			c-0.814,0.025-1.641,0.026-2.479,0.005c0.554-1.018,1.077-2.342,1.474-3.864c2.88-11.03,4.75-23.736,5.216-35.319
			c0.455-11.597-0.556-19.906-2.7-24.204c-0.861-1.734-3.047,1.156-4.249,5.585c-2.942,10.949-5.139,23.229-5.673,34.725
			c-0.478,10.132,0.425,18.009,2.251,22.852c-7.811-0.755-16.63-3.322-26.094-7.564c1.077-0.653,2.215-2.18,3-4.29
			c3.695-9.932,6.223-21.916,6.935-33.398c0.705-11.495-0.52-20.336-3.166-25.569c-1.069-2.114-3.812-0.089-5.331,3.902
			c-3.73,9.872-6.496,21.424-7.266,32.8c-0.744,10.904,0.492,19.725,3.059,25.275c-9.237-4.392-19.03-10.32-28.983-17.519
			c1.342-0.094,2.887-1.352,3.928-3.518c4.262-8.879,7.279-20.147,8.225-31.477c0.939-11.343-0.36-20.623-3.283-26.68
			c-1.184-2.448-4.284-1.221-6.021,2.352c-4.274,8.841-7.451,19.671-8.44,30.877c-0.978,11.027,0.36,20.436,3.285,26.759
			c-10.142-7.506-20.417-16.295-30.435-25.952c1.504,0.567,3.426-0.277,4.688-2.422c4.618-7.84,7.995-18.374,9.147-29.503
			c1.15-11.142-0.129-20.785-3.162-27.583c-1.229-2.749-4.531-2.278-6.407,0.883c-4.622,7.826-8.072,17.916-9.25,28.902
			c-1.178,10.972,0.138,20.85,3.22,27.922c0.027,0.064,0.062,0.119,0.093,0.18c-11.908-11.615-23.405-24.426-33.969-37.526
			c1.458,0.753,3.266,0.346,4.52-1.361c4.876-6.631,8.606-16.287,10.074-27.125c1.469-10.851,0.407-20.838-2.507-28.403
			c-1.182-3.06-4.55-3.417-6.526-0.726c-4.878,6.665-8.593,15.87-10.057,26.529c-1.457,10.582-0.417,20.697,2.448,28.53
			c-11.394-14.312-21.63-28.883-30.306-42.349c1.099,0.327,2.255,0.053,3.144-0.956c4.826-5.47,8.615-14.234,10.2-24.709
			c1.586-10.487,0.667-20.699-2.099-28.911c-1.121-3.324-4.416-4.447-6.373-2.217c-4.836,5.529-8.531,13.84-10.07,24.117
			c-1.385,9.239-0.8,18.558,1.296,26.537C67.883,85.221,59.172,68.638,54.552,59.582C55.686,60.403,56.951,60.505,57.911,59.592z"/>
	</g>
</g>
<g id="點" class="st0">
</g>
<g id="雜訊" class="st0">
</g>
<g id="path_拷貝" class="st0">
</g>
<g id="path" class="st0">
</g>
</svg>
