<?xml version="1.0" encoding="utf-8"?>
<!-- Generator: Adobe Illustrator 25.0.1, SVG Export Plug-In . SVG Version: 6.00 Build 0)  -->
<svg version="1.1" xmlns="http://www.w3.org/2000/svg" xmlns:xlink="http://www.w3.org/1999/xlink" x="0px" y="0px"
	 width="269.787px" height="346.454px" viewBox="0 0 269.787 346.454" style="enable-background:new 0 0 269.787 346.454;"
	 xml:space="preserve">
<style type="text/css">
	.st0{display:none;}
	.st1{display:inline;}
	.st2{fill:#52B380;}
	.st3{fill:none;stroke:#AAF1D9;stroke-width:2;stroke-linecap:round;stroke-miterlimit:10;}
	.st4{fill:none;stroke:#002129;stroke-width:3;stroke-linecap:round;stroke-miterlimit:10;}
	.st5{display:inline;fill:#79E0A8;}
	.st6{fill:#79E0A8;}
	.st7{display:inline;fill:#002129;}
	.st8{display:inline;opacity:0.24;}
	.st9{display:inline;opacity:0.11;}
	.st10{display:inline;opacity:0.62;}
	.st11{fill:#254856;}
	.st12{fill:#436F70;}
	.st13{display:inline;opacity:0.46;}
	.st14{fill:#274854;}
	.st15{fill:#638199;}
	.st16{fill:#1F3B44;}
	.st17{display:inline;opacity:0.3;}
	.st18{display:inline;opacity:0.2;}
	.st19{fill:#002129;}
	.st20{display:inline;opacity:0.1;fill:#00080D;}
	.st21{opacity:0.34;}
	.st22{fill:#83BE7C;}
	.st23{fill:#A2E79D;}
	.st24{fill:#C7E7C3;}
	.st25{opacity:0.65;}
	.st26{fill:#AAF1D9;}
	.st27{fill:#439166;}
	.st28{display:inline;opacity:0.65;}
	.st29{opacity:0.56;}
	.st30{opacity:0.3;}
	.st31{opacity:0.0233;}
	.st32{fill:#FFFFFF;}
	.st33{opacity:0.017;}
	.st34{opacity:0.0578;}
	.st35{opacity:0.1868;}
	.st36{opacity:0.2141;}
	.st37{opacity:0.2444;}
	.st38{opacity:0.2934;}
	.st39{opacity:0.8966;}
	.st40{opacity:0.8157;}
	.st41{opacity:0.1958;}
	.st42{opacity:0.055;}
	.st43{opacity:0.1845;}
	.st44{opacity:0.2628;}
	.st45{opacity:0.1595;}
	.st46{opacity:0.2794;}
	.st47{opacity:0.1885;}
	.st48{opacity:0.4713;}
	.st49{opacity:0.3983;}
	.st50{opacity:0.1625;}
	.st51{opacity:0.2883;}
	.st52{opacity:0.434;}
	.st53{opacity:0.1645;}
	.st54{opacity:0.1242;}
	.st55{opacity:0.1068;}
	.st56{opacity:0.0652;}
	.st57{opacity:0.2094;}
	.st58{opacity:0.1565;}
	.st59{opacity:0.3417;}
	.st60{opacity:0.2449;}
	.st61{opacity:0.2293;}
	.st62{opacity:0.1949;}
	.st63{opacity:0.632;}
	.st64{opacity:0.121;}
	.st65{opacity:0.0677;}
	.st66{opacity:0.0332;}
	.st67{opacity:0.2805;}
	.st68{opacity:0.5054;}
	.st69{opacity:0.2391;}
	.st70{opacity:0.4063;}
	.st71{opacity:0.1637;}
	.st72{opacity:0.044;}
	.st73{opacity:0.0739;}
	.st74{opacity:0.052;}
	.st75{opacity:0.0429;}
	.st76{opacity:0.0314;}
	.st77{opacity:0.3285;}
	.st78{opacity:0.5065;}
	.st79{opacity:0.2088;}
	.st80{opacity:0.3257;}
	.st81{opacity:0.316;}
	.st82{opacity:0.7164;}
	.st83{opacity:0.122;}
	.st84{opacity:0.1284;}
	.st85{display:inline;opacity:0.5;}
	.st86{display:inline;fill:none;stroke:#000000;stroke-miterlimit:10;}
</style>
<g id="零件" class="st0">
</g>
<g id="底色" class="st0">
</g>
<g id="底葉" class="st0">
</g>
<g id="路" class="st0">
</g>
<g id="青蛙" class="st0">
</g>
<g id="上葉" class="st0">
</g>
<g id="圖層_11">
	<g>
		<g class="st25">
			<path class="st2" d="M1.122,192.076c9.96,28.664,59.998,62.682,105.165,88.679c45.564,26.132,86.259,44.243,86.694,44.23
				c-0.212,0.012-9.586-14.347-25.9-33.208c-15.994-18.797-38.927-42.097-58.847-58.473c-31.073-26.039-61.843-42.77-81.845-49.906
				C6.09,176.299-3.439,178.795,1.122,192.076z"/>
			<path class="st19" d="M149.074,290.825c-0.266,0.32-0.854,0.307-1.333-0.034C97.3,253.768,35.549,209.224,34.432,208.98
				c-0.574-0.406-0.845-0.949-0.591-1.219c0.247-0.269,0.915-0.157,1.492,0.248c1.112,0.242,62.863,44.621,113.335,81.548
				c0.491,0.348,0.678,0.908,0.422,1.248C149.083,290.812,149.079,290.819,149.074,290.825z"/>
		</g>
		<g class="st25">
			<path class="st2" d="M238.014,4.021c-53.252,21.529-81.663,108.832-70.447,189.226c6.987,80.594,53.599,154.278,52.735,153.196
				c0.411-0.002-2.305-28.304,0.776-66.29c2.513-37.849,10.823-85.382,20.203-120.684C270.339,47.114,288.634-17.191,238.014,4.021z
				"/>
			<path class="st19" d="M200.569,256.654c-0.709-0.031-1.383-0.784-1.514-1.71C182.49,154.339,224.542,53.002,225.433,52.62
				c0.376-0.916,1.217-1.518,1.886-1.338c0.665,0.176,0.895,1.06,0.521,1.978c-0.885,0.384-42.666,101.423-26.163,201.688
				c0.134,0.943-0.338,1.708-1.063,1.707C200.599,256.656,200.584,256.655,200.569,256.654z"/>
		</g>
		<g class="st25">
			<path class="st6" d="M14.196,41.016C9.208,83.905,65.1,154.143,111.906,212.01c48.49,58.119,87.894,103.868,88.839,103.604
				c-0.386,0.013-1.224-27.001-9.902-62.674c-8.114-35.555-24.069-79.768-41.64-111.439c-26.9-50.343-61.893-85.261-88.038-102.82
				C34.575,21.159,16.833,20.997,14.196,41.016z"/>
			<path class="st19" d="M166.085,244.425c-0.616,0.395-1.44,0.145-1.867-0.575C120.387,165.782,55.63,78.005,54.209,77.554
				c-0.6-0.797-0.618-1.673-0.029-1.955c0.585-0.284,1.544,0.133,2.148,0.93c1.416,0.451,66.171,87.921,110.122,165.761
				c0.438,0.733,0.29,1.678-0.328,2.109C166.11,244.408,166.098,244.416,166.085,244.425z"/>
		</g>
	</g>
</g>
<g id="點" class="st0">
</g>
<g id="雜訊" class="st0">
</g>
<g id="path_拷貝" class="st0">
</g>
<g id="path" class="st0">
</g>
</svg>
