<?xml version="1.0" encoding="utf-8"?>
<!-- Generator: Adobe Illustrator 25.0.1, SVG Export Plug-In . SVG Version: 6.00 Build 0)  -->
<svg version="1.1" id="圖層_1" xmlns="http://www.w3.org/2000/svg" xmlns:xlink="http://www.w3.org/1999/xlink" x="0px" y="0px"
	 width="1200px" height="800px" viewBox="0 0 1200 800" style="enable-background:new 0 0 1200 800;" xml:space="preserve">
<style type="text/css">
	.st0{fill:none;stroke:#000000;stroke-miterlimit:10;}
</style>
<path class="st0" d="M235.5-36.5c0,0-129,157.858-143,381.918c-6.6,105.632,47,236.043,159,295.679s338.566,101.881,547,64.404
	c199-35.781,312.016-164.676,313-266c1-103-34-221.816-200-278.044c-142.542-48.282-346.846-37.455-471,31.044
	c-116,64-154.263,213.533-81,304.619c92,114.381,410,116.381,476,2.891c62.975-108.289-40-203.51-158-206.51"/>
<circle cx="551" cy="394" r="5"/>
</svg>
